<svg xmlns="http://www.w3.org/2000/svg" xmlns:xlink="http://www.w3.org/1999/xlink" width="500" zoomAndPan="magnify" viewBox="0 0 375 112.499997" height="150" preserveAspectRatio="xMidYMid meet" version="1.0"><defs><g/><clipPath id="73384801bf"><path d="M 82 41 L 371 41 L 371 112.003906 L 82 112.003906 Z M 82 41 " clip-rule="nonzero"/></clipPath><clipPath id="e70c49c8c8"><rect x="0" width="289" y="0" height="72"/></clipPath><clipPath id="2cc642a06e"><path d="M 200.816406 20.667969 L 225.5 20.667969 L 225.5 47.222656 L 200.816406 47.222656 Z M 200.816406 20.667969 " clip-rule="nonzero"/></clipPath><clipPath id="6c070bba40"><path d="M 0.816406 0.667969 L 25.5 0.667969 L 25.5 27.222656 L 0.816406 27.222656 Z M 0.816406 0.667969 " clip-rule="nonzero"/></clipPath><clipPath id="a516b47352"><rect x="0" width="26" y="0" height="28"/></clipPath><clipPath id="f67ea3ae21"><rect x="0" width="232" y="0" height="52"/></clipPath><clipPath id="9b3ff59cb9"><path d="M 271.140625 15.496094 L 322.660156 15.496094 L 322.660156 54 L 271.140625 54 Z M 271.140625 15.496094 " clip-rule="nonzero"/></clipPath></defs><g clip-path="url(#73384801bf)"><g transform="matrix(1, 0, 0, 1, 82, 41)"><g clip-path="url(#e70c49c8c8)"><g fill="#ff8601" fill-opacity="1"><g transform="translate(0.759342, 56.169426)"><g><path d="M 61.8125 -44.0625 C 61.8125 -44.0625 61.8125 -44.015625 61.8125 -43.921875 C 61.8125 -43.828125 61.8125 -43.78125 61.8125 -43.78125 C 61.8125 -43.726562 61.796875 -43.226562 61.765625 -42.28125 C 61.742188 -41.34375 61.722656 -40.257812 61.703125 -39.03125 C 61.679688 -37.8125 61.671875 -36.800781 61.671875 -36 C 61.671875 -35.570312 61.679688 -34.847656 61.703125 -33.828125 C 61.722656 -32.816406 61.742188 -31.882812 61.765625 -31.03125 C 61.796875 -30.1875 61.8125 -29.765625 61.8125 -29.765625 C 61.8125 -29.484375 61.671875 -29.34375 61.390625 -29.34375 C 58.984375 -29.34375 56.566406 -29.351562 54.140625 -29.375 C 51.710938 -29.40625 49.269531 -29.441406 46.8125 -29.484375 C 46.25 -29.484375 45.390625 -29.519531 44.234375 -29.59375 C 43.078125 -29.664062 41.847656 -29.722656 40.546875 -29.765625 C 39.253906 -29.816406 38.085938 -29.851562 37.046875 -29.875 C 36.015625 -29.894531 35.3125 -29.859375 34.9375 -29.765625 C 34.269531 -29.628906 33.785156 -29.300781 33.484375 -28.78125 C 33.179688 -28.257812 32.992188 -27.71875 32.921875 -27.15625 C 32.847656 -26.59375 32.835938 -26.21875 32.890625 -26.03125 C 33.023438 -24.9375 33.410156 -24.363281 34.046875 -24.3125 C 34.679688 -24.269531 35.519531 -24.179688 36.5625 -24.046875 C 37.644531 -23.898438 39.046875 -23.863281 40.765625 -23.9375 C 42.484375 -24.007812 43.890625 -24 44.984375 -23.90625 C 46.390625 -23.851562 47.609375 -23.863281 48.640625 -23.9375 C 49.679688 -24.007812 51.03125 -24.019531 52.6875 -23.96875 C 54.007812 -23.96875 55.445312 -23.96875 57 -23.96875 C 58.550781 -23.96875 60.015625 -24.015625 61.390625 -24.109375 C 61.671875 -24.160156 61.8125 -24.046875 61.8125 -23.765625 C 61.8125 -23.765625 61.773438 -23.300781 61.703125 -22.375 C 61.628906 -21.457031 61.59375 -20.457031 61.59375 -19.375 C 61.59375 -18.8125 61.601562 -18 61.625 -16.9375 C 61.65625 -15.875 61.691406 -14.914062 61.734375 -14.0625 C 61.785156 -13.21875 61.8125 -12.796875 61.8125 -12.796875 C 61.8125 -12.515625 61.671875 -12.375 61.390625 -12.375 C 60.535156 -12.375 59.671875 -12.375 58.796875 -12.375 C 57.929688 -12.375 57.050781 -12.375 56.15625 -12.375 C 55.582031 -12.425781 54.578125 -12.472656 53.140625 -12.515625 C 51.703125 -12.566406 50.03125 -12.601562 48.125 -12.625 C 46.21875 -12.644531 44.285156 -12.609375 42.328125 -12.515625 C 40.367188 -12.421875 38.585938 -12.234375 36.984375 -11.953125 C 35.472656 -11.617188 34.445312 -11.25 33.90625 -10.84375 C 33.363281 -10.445312 33.023438 -9.988281 32.890625 -9.46875 C 32.460938 -8.25 32.296875 -6.800781 32.390625 -5.125 C 32.484375 -3.445312 32.578125 -1.878906 32.671875 -0.421875 C 32.671875 -0.140625 32.53125 0 32.25 0 L 2.546875 0 C 2.265625 0 2.125 -0.140625 2.125 -0.421875 C 2.125 -0.421875 2.109375 -0.757812 2.078125 -1.4375 C 2.054688 -2.125 2.035156 -3.007812 2.015625 -4.09375 C 1.992188 -5.1875 1.96875 -6.296875 1.9375 -7.421875 C 1.914062 -8.554688 1.90625 -9.570312 1.90625 -10.46875 C 1.90625 -11.175781 1.914062 -12.222656 1.9375 -13.609375 C 1.96875 -15.003906 2.003906 -16.5625 2.046875 -18.28125 C 2.097656 -20 2.132812 -21.71875 2.15625 -23.4375 C 2.175781 -25.164062 2.1875 -26.734375 2.1875 -28.140625 C 2.1875 -29.554688 2.164062 -30.644531 2.125 -31.40625 C 2.070312 -32.488281 2.082031 -33.722656 2.15625 -35.109375 C 2.226562 -36.503906 2.21875 -37.742188 2.125 -38.828125 L 2.125 -44.0625 C 2.125 -44.34375 2.265625 -44.484375 2.546875 -44.484375 L 61.390625 -44.484375 C 61.671875 -44.484375 61.8125 -44.34375 61.8125 -44.0625 Z M 61.8125 -44.0625 "/></g></g></g><g fill="#ff8601" fill-opacity="1"><g transform="translate(64.683145, 56.169426)"><g><path d="M 58.703125 -3.890625 C 59.078125 -2.847656 59.453125 -1.8125 59.828125 -0.78125 C 59.921875 -0.59375 59.90625 -0.414062 59.78125 -0.25 C 59.664062 -0.0820312 59.515625 0 59.328125 0 L 33.796875 0 C 33.472656 0 33.285156 -0.1875 33.234375 -0.5625 C 33.234375 -0.65625 33.195312 -1.148438 33.125 -2.046875 C 33.0625 -2.941406 32.957031 -3.929688 32.8125 -5.015625 C 32.71875 -5.722656 32.632812 -6.414062 32.5625 -7.09375 C 32.488281 -7.78125 32.40625 -8.382812 32.3125 -8.90625 C 32.175781 -9.570312 31.8125 -10.054688 31.21875 -10.359375 C 30.632812 -10.660156 29.988281 -10.8125 29.28125 -10.8125 C 28.613281 -10.8125 27.984375 -10.71875 27.390625 -10.53125 C 26.804688 -10.34375 26.421875 -9.753906 26.234375 -8.765625 C 26.097656 -8.015625 25.957031 -7.097656 25.8125 -6.015625 C 25.664062 -4.929688 25.546875 -3.878906 25.453125 -2.859375 C 25.359375 -1.847656 25.3125 -1.082031 25.3125 -0.5625 C 25.269531 -0.1875 25.082031 0 24.75 0 L 1.984375 0 C 1.796875 0 1.640625 -0.0664062 1.515625 -0.203125 C 1.398438 -0.347656 1.367188 -0.515625 1.421875 -0.703125 C 1.742188 -1.785156 2.1875 -3.34375 2.75 -5.375 C 3.320312 -7.40625 3.9375 -9.726562 4.59375 -12.34375 C 5.257812 -14.957031 5.941406 -17.675781 6.640625 -20.5 C 7.347656 -23.332031 8.03125 -26.082031 8.6875 -28.75 C 9.351562 -31.414062 9.921875 -33.804688 10.390625 -35.921875 C 10.867188 -38.046875 11.222656 -39.695312 11.453125 -40.875 C 11.640625 -41.914062 11.804688 -42.953125 11.953125 -43.984375 C 11.992188 -44.316406 12.179688 -44.484375 12.515625 -44.484375 L 47.171875 -44.484375 C 47.503906 -44.484375 47.691406 -44.316406 47.734375 -43.984375 C 48.203125 -40.734375 48.835938 -37.523438 49.640625 -34.359375 C 50.441406 -31.203125 51.289062 -28.046875 52.1875 -24.890625 C 53.226562 -21.398438 54.265625 -17.882812 55.296875 -14.34375 C 56.335938 -10.8125 57.472656 -7.328125 58.703125 -3.890625 Z M 28.140625 -28.71875 C 27.671875 -25.976562 27.484375 -23.875 27.578125 -22.40625 C 27.671875 -20.945312 28.398438 -20.316406 29.765625 -20.515625 C 30.617188 -20.648438 31.128906 -21.046875 31.296875 -21.703125 C 31.460938 -22.367188 31.484375 -23.101562 31.359375 -23.90625 C 31.242188 -24.707031 31.160156 -25.390625 31.109375 -25.953125 C 31.066406 -26.566406 30.972656 -27.320312 30.828125 -28.21875 C 30.691406 -29.113281 30.503906 -29.898438 30.265625 -30.578125 C 30.023438 -31.265625 29.71875 -31.609375 29.34375 -31.609375 C 28.875 -31.566406 28.59375 -31.285156 28.5 -30.765625 C 28.40625 -30.242188 28.285156 -29.5625 28.140625 -28.71875 Z M 28.140625 -28.71875 "/></g></g></g><g fill="#ff8601" fill-opacity="1"><g transform="translate(126.132031, 56.169426)"><g><path d="M 61.25 -12.015625 C 61.25 -11.316406 61.25 -10.351562 61.25 -9.125 C 61.25 -7.894531 61.257812 -6.628906 61.28125 -5.328125 C 61.300781 -4.035156 61.320312 -2.941406 61.34375 -2.046875 C 61.375 -1.148438 61.390625 -0.703125 61.390625 -0.703125 C 61.390625 -0.234375 61.175781 0 60.75 0 L 19.875 0 C 17.707031 0 15.429688 -0.398438 13.046875 -1.203125 C 10.660156 -2.003906 8.523438 -3.367188 6.640625 -5.296875 C 4.804688 -7.234375 3.535156 -9.226562 2.828125 -11.28125 C 2.117188 -13.332031 1.765625 -15.488281 1.765625 -17.75 C 1.765625 -17.75 1.765625 -17.757812 1.765625 -17.78125 C 1.765625 -17.8125 1.765625 -17.828125 1.765625 -17.828125 L 1.765625 -26.375 C 1.765625 -26.375 1.765625 -26.382812 1.765625 -26.40625 C 1.765625 -26.4375 1.765625 -26.453125 1.765625 -26.453125 C 1.765625 -28.148438 1.832031 -29.691406 1.96875 -31.078125 C 2.113281 -32.472656 2.398438 -33.804688 2.828125 -35.078125 C 3.203125 -36.253906 3.753906 -37.3125 4.484375 -38.25 C 5.222656 -39.195312 6.085938 -40.070312 7.078125 -40.875 C 8.773438 -42.238281 10.4375 -43.144531 12.0625 -43.59375 C 13.6875 -44.039062 15.441406 -44.335938 17.328125 -44.484375 L 60.75 -44.484375 C 61.175781 -44.484375 61.390625 -44.269531 61.390625 -43.84375 L 61.390625 -39.8125 C 61.390625 -39.675781 61.375 -39.191406 61.34375 -38.359375 C 61.320312 -37.535156 61.3125 -36.640625 61.3125 -35.671875 C 61.3125 -34.710938 61.3125 -33.945312 61.3125 -33.375 C 61.3125 -32.625 61.320312 -31.867188 61.34375 -31.109375 C 61.375 -30.359375 61.390625 -29.609375 61.390625 -28.859375 L 61.390625 -26.453125 C 61.390625 -26.023438 61.175781 -25.785156 60.75 -25.734375 C 59.613281 -25.734375 58.140625 -25.742188 56.328125 -25.765625 C 54.515625 -25.796875 52.59375 -25.832031 50.5625 -25.875 C 48.53125 -25.925781 46.582031 -25.972656 44.71875 -26.015625 C 42.863281 -26.066406 41.300781 -26.113281 40.03125 -26.15625 C 38.757812 -26.207031 38.003906 -26.234375 37.765625 -26.234375 C 37.054688 -26.234375 36.359375 -26.175781 35.671875 -26.0625 C 34.992188 -25.945312 34.367188 -25.695312 33.796875 -25.3125 C 33.328125 -25.03125 32.925781 -24.640625 32.59375 -24.140625 C 32.269531 -23.648438 32.109375 -23.125 32.109375 -22.5625 C 32.109375 -22.039062 32.257812 -21.59375 32.5625 -21.21875 C 32.875 -20.84375 33.21875 -20.535156 33.59375 -20.296875 C 34.394531 -19.828125 35.289062 -19.519531 36.28125 -19.375 C 37.269531 -19.238281 38.210938 -19.117188 39.109375 -19.015625 C 39.722656 -18.972656 40.828125 -18.953125 42.421875 -18.953125 C 44.023438 -18.953125 45.84375 -18.960938 47.875 -18.984375 C 49.90625 -19.003906 51.882812 -19.023438 53.8125 -19.046875 C 55.75 -19.078125 57.363281 -19.101562 58.65625 -19.125 C 59.957031 -19.15625 60.65625 -19.171875 60.75 -19.171875 C 61.03125 -19.171875 61.242188 -19.023438 61.390625 -18.734375 C 61.335938 -17.609375 61.300781 -16.488281 61.28125 -15.375 C 61.257812 -14.269531 61.25 -13.148438 61.25 -12.015625 Z M 61.25 -12.015625 "/></g></g></g><g fill="#ff8601" fill-opacity="1"><g transform="translate(189.631565, 56.169426)"><g><path d="M 2.1875 -44.484375 L 32.03125 -44.484375 C 32.601562 -44.484375 32.863281 -44.203125 32.8125 -43.640625 C 32.570312 -40.191406 32.507812 -36.675781 32.625 -33.09375 C 32.75 -29.507812 32.835938 -25.953125 32.890625 -22.421875 C 32.890625 -20.441406 32.863281 -18.484375 32.8125 -16.546875 C 32.769531 -14.617188 32.769531 -12.660156 32.8125 -10.671875 C 32.863281 -9.023438 32.9375 -7.390625 33.03125 -5.765625 C 33.125 -4.140625 33.238281 -2.5 33.375 -0.84375 C 33.425781 -0.28125 33.164062 0 32.59375 0 L 2.265625 0 C 2.078125 0 2.003906 -0.117188 2.046875 -0.359375 C 2.140625 -0.960938 2.207031 -2.085938 2.25 -3.734375 C 2.300781 -5.390625 2.328125 -7.242188 2.328125 -9.296875 C 2.328125 -11.347656 2.316406 -13.28125 2.296875 -15.09375 C 2.273438 -16.914062 2.238281 -18.296875 2.1875 -19.234375 C 2.1875 -20.367188 2.175781 -21.851562 2.15625 -23.6875 C 2.132812 -25.53125 2.109375 -27.507812 2.078125 -29.625 C 2.054688 -31.75 2.035156 -33.8125 2.015625 -35.8125 C 1.992188 -37.820312 1.96875 -39.578125 1.9375 -41.078125 C 1.914062 -42.585938 1.90625 -43.628906 1.90625 -44.203125 C 1.957031 -44.242188 2.050781 -44.335938 2.1875 -44.484375 Z M 2.1875 -44.484375 "/></g></g></g><g fill="#ff8601" fill-opacity="1"><g transform="translate(224.916936, 56.169426)"><g><path d="M 61.390625 -7.140625 C 61.390625 -6.804688 61.398438 -6.285156 61.421875 -5.578125 C 61.441406 -4.878906 61.460938 -4.140625 61.484375 -3.359375 C 61.515625 -2.578125 61.539062 -1.90625 61.5625 -1.34375 C 61.582031 -0.78125 61.59375 -0.5 61.59375 -0.5 C 61.59375 -0.164062 61.425781 0 61.09375 0 L 2.46875 0 C 2.144531 0 1.984375 -0.164062 1.984375 -0.5 L 1.984375 -1.625 C 1.984375 -1.675781 1.984375 -1.703125 1.984375 -1.703125 C 1.984375 -1.796875 1.984375 -1.890625 1.984375 -1.984375 C 1.984375 -1.984375 1.992188 -2.640625 2.015625 -3.953125 C 2.035156 -5.273438 2.046875 -7.019531 2.046875 -9.1875 C 2.046875 -11.363281 2.046875 -13.769531 2.046875 -16.40625 C 2.046875 -19.039062 2.054688 -21.691406 2.078125 -24.359375 C 2.109375 -27.023438 2.125 -29.488281 2.125 -31.75 C 2.125 -34.007812 2.125 -35.882812 2.125 -37.375 C 2.125 -38.863281 2.097656 -39.722656 2.046875 -39.953125 C 2.046875 -40.617188 2.035156 -41.289062 2.015625 -41.96875 C 1.992188 -42.65625 2.003906 -43.351562 2.046875 -44.0625 C 2.097656 -44.34375 2.285156 -44.484375 2.609375 -44.484375 L 31.328125 -44.484375 C 31.660156 -44.484375 31.828125 -44.316406 31.828125 -43.984375 C 31.828125 -43.367188 31.835938 -42.210938 31.859375 -40.515625 C 31.878906 -38.816406 31.898438 -36.875 31.921875 -34.6875 C 31.953125 -32.5 31.976562 -30.351562 32 -28.25 C 32.019531 -26.15625 32.039062 -24.363281 32.0625 -22.875 C 32.09375 -21.394531 32.128906 -20.554688 32.171875 -20.359375 C 32.171875 -19.753906 32.132812 -19.128906 32.0625 -18.484375 C 32 -17.847656 32.082031 -17.367188 32.3125 -17.046875 C 32.550781 -16.765625 32.867188 -16.597656 33.265625 -16.546875 C 33.671875 -16.503906 34.203125 -16.4375 34.859375 -16.34375 C 35.472656 -16.238281 36.320312 -16.175781 37.40625 -16.15625 C 38.488281 -16.132812 39.570312 -16.125 40.65625 -16.125 C 41.75 -16.125 42.597656 -16.125 43.203125 -16.125 C 43.816406 -16.070312 44.9375 -16.066406 46.5625 -16.109375 C 48.195312 -16.160156 50.003906 -16.222656 51.984375 -16.296875 C 53.960938 -16.367188 55.8125 -16.414062 57.53125 -16.4375 C 59.25 -16.46875 60.507812 -16.484375 61.3125 -16.484375 C 61.457031 -16.484375 61.53125 -16.410156 61.53125 -16.265625 C 61.570312 -16.023438 61.59375 -15.742188 61.59375 -15.421875 C 61.59375 -15.421875 61.582031 -15.171875 61.5625 -14.671875 C 61.539062 -14.179688 61.515625 -13.628906 61.484375 -13.015625 C 61.460938 -12.398438 61.429688 -11.925781 61.390625 -11.59375 C 61.335938 -10.84375 61.3125 -10.085938 61.3125 -9.328125 C 61.3125 -8.578125 61.335938 -7.847656 61.390625 -7.140625 Z M 61.390625 -7.140625 "/></g></g></g></g></g></g><g clip-path="url(#2cc642a06e)"><g transform="matrix(1, 0, 0, 1, 200, 20)"><g clip-path="url(#a516b47352)"><g clip-path="url(#6c070bba40)"><path fill="#ffe538" d="M 0.816406 0.667969 L 25.5 0.667969 L 25.5 27.183594 L 0.816406 27.183594 Z M 0.816406 0.667969 " fill-opacity="1" fill-rule="nonzero"/></g></g></g></g><g transform="matrix(1, 0, 0, 1, 5, 6)"><g clip-path="url(#f67ea3ae21)"><g fill="#010e9b" fill-opacity="1"><g transform="translate(0.91016, 40.9491)"><g><path d="M 44.953125 -14.03125 C 44.953125 -13.726562 44.910156 -13.097656 44.828125 -12.140625 C 44.742188 -11.191406 44.582031 -10.21875 44.34375 -9.21875 C 44.09375 -8.351562 43.785156 -7.5 43.421875 -6.65625 C 43.066406 -5.8125 42.441406 -4.921875 41.546875 -3.984375 C 40.609375 -3.054688 39.1875 -2.160156 37.28125 -1.296875 C 35.382812 -0.429688 32.898438 0 29.828125 0 L 2.078125 0 C 1.722656 0 1.566406 -0.171875 1.609375 -0.515625 C 1.671875 -0.796875 1.710938 -1.4375 1.734375 -2.4375 C 1.753906 -3.4375 1.765625 -4.582031 1.765625 -5.875 C 1.765625 -7.175781 1.765625 -8.421875 1.765625 -9.609375 C 1.765625 -10.796875 1.742188 -11.738281 1.703125 -12.4375 C 1.671875 -13.945312 1.617188 -15.460938 1.546875 -16.984375 C 1.484375 -18.503906 1.4375 -20.023438 1.40625 -21.546875 L 1.40625 -30.453125 C 1.4375 -31.003906 1.46875 -31.578125 1.5 -32.171875 C 1.5 -32.441406 1.640625 -32.578125 1.921875 -32.578125 L 30.609375 -32.578125 C 30.609375 -32.578125 30.613281 -32.578125 30.625 -32.578125 C 30.644531 -32.578125 30.65625 -32.578125 30.65625 -32.578125 C 31.382812 -32.472656 32.265625 -32.332031 33.296875 -32.15625 C 34.335938 -31.988281 35.4375 -31.6875 36.59375 -31.25 C 37.75 -30.820312 38.863281 -30.210938 39.9375 -29.421875 C 41.039062 -28.628906 41.898438 -27.710938 42.515625 -26.671875 C 43.140625 -25.640625 43.609375 -24.601562 43.921875 -23.5625 C 44.234375 -22.53125 44.457031 -21.648438 44.59375 -20.921875 C 44.695312 -20.335938 44.78125 -19.742188 44.84375 -19.140625 C 44.914062 -18.535156 44.953125 -17.941406 44.953125 -17.359375 C 44.953125 -17.003906 44.953125 -16.5 44.953125 -15.84375 C 44.953125 -15.1875 44.953125 -14.582031 44.953125 -14.03125 Z M 17.359375 -14.5625 C 17.554688 -14.59375 18.070312 -14.597656 18.90625 -14.578125 C 19.738281 -14.566406 20.710938 -14.566406 21.828125 -14.578125 C 22.953125 -14.597656 24.082031 -14.640625 25.21875 -14.703125 C 26.363281 -14.773438 27.347656 -14.914062 28.171875 -15.125 C 28.765625 -15.226562 29.128906 -15.441406 29.265625 -15.765625 C 29.398438 -16.097656 29.441406 -16.421875 29.390625 -16.734375 C 29.335938 -17.046875 29.296875 -17.21875 29.265625 -17.25 C 28.953125 -17.664062 28.570312 -17.914062 28.125 -18 C 27.675781 -18.082031 27.210938 -18.160156 26.734375 -18.234375 C 26.523438 -18.265625 26.003906 -18.28125 25.171875 -18.28125 C 24.347656 -18.28125 23.414062 -18.28125 22.375 -18.28125 C 21.34375 -18.28125 20.367188 -18.28125 19.453125 -18.28125 C 18.535156 -18.28125 17.882812 -18.265625 17.5 -18.234375 L 17.453125 -18.234375 C 17.210938 -18.265625 17.019531 -18.242188 16.875 -18.171875 C 16.738281 -18.109375 16.671875 -17.90625 16.671875 -17.5625 L 16.671875 -15.390625 C 16.671875 -15.140625 16.734375 -14.925781 16.859375 -14.75 C 16.984375 -14.582031 17.148438 -14.519531 17.359375 -14.5625 Z M 17.359375 -14.5625 "/></g></g></g><g fill="#010e9b" fill-opacity="1"><g transform="translate(47.262025, 40.9491)"><g><path d="M 44.703125 -8.59375 C 44.703125 -8.351562 44.707031 -7.8125 44.71875 -6.96875 C 44.738281 -6.125 44.753906 -5.191406 44.765625 -4.171875 C 44.785156 -3.148438 44.8125 -2.269531 44.84375 -1.53125 C 44.882812 -0.789062 44.90625 -0.421875 44.90625 -0.421875 C 44.90625 -0.140625 44.75 0 44.4375 0 L 1.703125 0 C 1.429688 0 1.296875 -0.15625 1.296875 -0.46875 C 1.398438 -3.09375 1.46875 -5.734375 1.5 -8.390625 C 1.53125 -11.046875 1.546875 -13.707031 1.546875 -16.375 C 1.585938 -18.925781 1.6875 -21.492188 1.84375 -24.078125 C 2 -26.671875 1.898438 -29.242188 1.546875 -31.796875 C 1.515625 -31.835938 1.5 -31.882812 1.5 -31.9375 C 1.5 -31.988281 1.5 -32.03125 1.5 -32.0625 C 1.4375 -32.40625 1.578125 -32.578125 1.921875 -32.578125 L 44.28125 -32.578125 C 44.488281 -32.578125 44.628906 -32.472656 44.703125 -32.265625 L 44.703125 -32.21875 C 44.703125 -32.21875 44.703125 -31.90625 44.703125 -31.28125 C 44.703125 -30.664062 44.691406 -29.90625 44.671875 -29 C 44.660156 -28.101562 44.644531 -27.195312 44.625 -26.28125 C 44.601562 -25.375 44.59375 -24.613281 44.59375 -24 C 44.59375 -23.394531 44.59375 -23.09375 44.59375 -23.09375 C 44.59375 -22.820312 44.457031 -22.6875 44.1875 -22.6875 C 44.1875 -22.6875 43.847656 -22.6875 43.171875 -22.6875 C 42.492188 -22.6875 41.65625 -22.675781 40.65625 -22.65625 C 39.65625 -22.644531 38.609375 -22.640625 37.515625 -22.640625 C 36.429688 -22.640625 35.441406 -22.644531 34.546875 -22.65625 C 33.648438 -22.675781 33.007812 -22.6875 32.625 -22.6875 C 31.3125 -22.757812 29.988281 -22.796875 28.65625 -22.796875 C 27.332031 -22.796875 26.015625 -22.707031 24.703125 -22.53125 C 24.191406 -22.457031 23.65625 -22.300781 23.09375 -22.0625 C 22.539062 -21.820312 22.25 -21.390625 22.21875 -20.765625 C 22.1875 -20.390625 22.300781 -20.0625 22.5625 -19.78125 C 22.820312 -19.507812 23.125 -19.320312 23.46875 -19.21875 C 23.84375 -19.082031 24.242188 -19.015625 24.671875 -19.015625 C 25.109375 -19.015625 25.535156 -19.015625 25.953125 -19.015625 C 26.367188 -19.015625 27.082031 -19.019531 28.09375 -19.03125 C 29.113281 -19.050781 30.285156 -19.0625 31.609375 -19.0625 C 32.941406 -19.0625 34.316406 -19.0625 35.734375 -19.0625 C 37.148438 -19.0625 38.472656 -19.066406 39.703125 -19.078125 C 40.929688 -19.097656 41.945312 -19.109375 42.75 -19.109375 C 43.5625 -19.109375 44.039062 -19.109375 44.1875 -19.109375 C 44.457031 -19.109375 44.59375 -18.972656 44.59375 -18.703125 C 44.59375 -18.703125 44.59375 -18.414062 44.59375 -17.84375 C 44.59375 -17.269531 44.601562 -16.601562 44.625 -15.84375 C 44.644531 -15.082031 44.660156 -14.375 44.671875 -13.71875 C 44.691406 -13.0625 44.703125 -12.664062 44.703125 -12.53125 C 44.703125 -12.257812 44.546875 -12.125 44.234375 -12.125 C 43.023438 -12.125 41.816406 -12.113281 40.609375 -12.09375 C 39.398438 -12.070312 38.191406 -12.082031 36.984375 -12.125 C 36.398438 -12.125 35.585938 -12.128906 34.546875 -12.140625 C 33.515625 -12.160156 32.4375 -12.1875 31.3125 -12.21875 C 30.1875 -12.257812 29.175781 -12.285156 28.28125 -12.296875 C 27.382812 -12.316406 26.796875 -12.328125 26.515625 -12.328125 C 26.140625 -12.296875 25.703125 -12.28125 25.203125 -12.28125 C 24.703125 -12.28125 24.222656 -12.207031 23.765625 -12.0625 C 23.316406 -11.925781 22.992188 -11.648438 22.796875 -11.234375 C 22.441406 -10.578125 22.488281 -10.03125 22.9375 -9.59375 C 23.394531 -9.164062 23.898438 -8.882812 24.453125 -8.75 C 25.140625 -8.582031 25.828125 -8.523438 26.515625 -8.578125 C 27.210938 -8.628906 27.90625 -8.65625 28.59375 -8.65625 C 29.113281 -8.65625 29.890625 -8.660156 30.921875 -8.671875 C 31.960938 -8.691406 33.128906 -8.71875 34.421875 -8.75 C 35.710938 -8.789062 37.003906 -8.828125 38.296875 -8.859375 C 39.597656 -8.890625 40.773438 -8.910156 41.828125 -8.921875 C 42.878906 -8.941406 43.679688 -8.972656 44.234375 -9.015625 C 44.546875 -9.015625 44.703125 -8.875 44.703125 -8.59375 Z M 44.703125 -8.59375 "/></g></g></g><g fill="#010e9b" fill-opacity="1"><g transform="translate(93.613889, 40.9491)"><g><path d="M 44.4375 -32.578125 C 44.476562 -32.546875 44.53125 -32.492188 44.59375 -32.421875 C 44.664062 -31.285156 44.664062 -30.265625 44.59375 -29.359375 C 44.53125 -28.460938 44.5 -27.535156 44.5 -26.578125 C 44.5 -26.160156 44.539062 -25.550781 44.625 -24.75 C 44.707031 -23.957031 44.75 -23.359375 44.75 -22.953125 C 44.78125 -22.640625 44.625 -22.484375 44.28125 -22.484375 C 42.5625 -22.546875 40.84375 -22.617188 39.125 -22.703125 C 37.414062 -22.796875 35.507812 -22.859375 33.40625 -22.890625 C 31.957031 -22.890625 30.566406 -22.914062 29.234375 -22.96875 C 27.910156 -23.019531 26.816406 -23.03125 25.953125 -23 C 24.640625 -22.96875 23.515625 -22.863281 22.578125 -22.6875 C 21.648438 -22.507812 21.1875 -22.113281 21.1875 -21.5 C 21.1875 -20.875 21.363281 -20.484375 21.71875 -20.328125 C 22.082031 -20.171875 22.390625 -20.078125 22.640625 -20.046875 C 23.566406 -19.910156 24.363281 -19.84375 25.03125 -19.84375 C 25.707031 -19.84375 26.53125 -19.875 27.5 -19.9375 C 28.601562 -19.976562 29.8125 -19.988281 31.125 -19.96875 C 32.4375 -19.945312 33.664062 -19.90625 34.8125 -19.84375 C 35.945312 -19.769531 36.988281 -19.617188 37.9375 -19.390625 C 38.882812 -19.171875 39.789062 -18.679688 40.65625 -17.921875 C 41.382812 -17.296875 41.960938 -16.765625 42.390625 -16.328125 C 42.828125 -15.898438 43.203125 -15.238281 43.515625 -14.34375 C 44.203125 -12.476562 44.457031 -10.507812 44.28125 -8.4375 C 44.28125 -8.300781 44.226562 -7.957031 44.125 -7.40625 C 44.019531 -6.851562 43.835938 -6.238281 43.578125 -5.5625 C 43.328125 -4.894531 42.992188 -4.265625 42.578125 -3.671875 C 41.953125 -2.847656 41.21875 -2.203125 40.375 -1.734375 C 39.53125 -1.265625 38.914062 -0.976562 38.53125 -0.875 C 37.632812 -0.601562 36.769531 -0.414062 35.9375 -0.3125 C 35.113281 -0.207031 34.238281 -0.140625 33.3125 -0.109375 C 32.925781 -0.0664062 32.535156 -0.046875 32.140625 -0.046875 C 31.742188 -0.046875 31.335938 -0.046875 30.921875 -0.046875 C 30.847656 -0.046875 30.757812 -0.03125 30.65625 0 C 30.625 0 30.59375 0 30.5625 0 L 1.8125 0 C 1.539062 0 1.382812 -0.140625 1.34375 -0.421875 C 1.34375 -0.828125 1.351562 -1.238281 1.375 -1.65625 C 1.394531 -2.070312 1.421875 -2.488281 1.453125 -2.90625 C 1.554688 -3.9375 1.585938 -4.976562 1.546875 -6.03125 C 1.515625 -7.082031 1.5 -8.128906 1.5 -9.171875 C 1.5 -9.484375 1.65625 -9.617188 1.96875 -9.578125 C 2.175781 -9.578125 2.769531 -9.5625 3.75 -9.53125 C 4.738281 -9.5 5.945312 -9.460938 7.375 -9.421875 C 8.8125 -9.390625 10.34375 -9.363281 11.96875 -9.34375 C 13.59375 -9.332031 15.144531 -9.328125 16.625 -9.328125 C 18.113281 -9.328125 19.390625 -9.34375 20.453125 -9.375 C 21.523438 -9.40625 22.21875 -9.472656 22.53125 -9.578125 C 22.84375 -9.648438 23.175781 -9.78125 23.53125 -9.96875 C 23.894531 -10.15625 24.03125 -10.578125 23.9375 -11.234375 C 23.832031 -11.785156 23.398438 -12.140625 22.640625 -12.296875 C 21.878906 -12.453125 21.03125 -12.515625 20.09375 -12.484375 C 19.925781 -12.453125 19.359375 -12.425781 18.390625 -12.40625 C 17.421875 -12.382812 16.253906 -12.390625 14.890625 -12.421875 C 13.523438 -12.460938 12.132812 -12.535156 10.71875 -12.640625 C 9.300781 -12.742188 8.023438 -12.90625 6.890625 -13.125 C 5.753906 -13.351562 4.941406 -13.65625 4.453125 -14.03125 C 3.796875 -14.519531 3.257812 -15.066406 2.84375 -15.671875 C 2.4375 -16.273438 2.128906 -16.851562 1.921875 -17.40625 C 1.398438 -18.957031 1.207031 -20.578125 1.34375 -22.265625 C 1.476562 -23.960938 1.894531 -25.570312 2.59375 -27.09375 C 2.757812 -27.507812 3.109375 -28.128906 3.640625 -28.953125 C 4.179688 -29.785156 4.867188 -30.457031 5.703125 -30.96875 C 6.660156 -31.625 7.679688 -32.054688 8.765625 -32.265625 C 9.859375 -32.472656 10.597656 -32.578125 10.984375 -32.578125 Z M 44.4375 -32.578125 "/></g></g></g><g fill="#010e9b" fill-opacity="1"><g transform="translate(139.655015, 40.9491)"><g><path d="M 44.90625 -23.046875 C 45.007812 -22.460938 45.050781 -21.875 45.03125 -21.28125 C 45.019531 -20.695312 44.992188 -20.113281 44.953125 -19.53125 C 44.921875 -18.976562 44.867188 -18.414062 44.796875 -17.84375 C 44.734375 -17.269531 44.632812 -16.707031 44.5 -16.15625 C 44.25 -15.226562 43.863281 -14.191406 43.34375 -13.046875 C 42.832031 -11.910156 41.851562 -10.6875 40.40625 -9.375 C 39.4375 -8.476562 38.257812 -7.835938 36.875 -7.453125 C 35.5 -7.078125 34.160156 -6.828125 32.859375 -6.703125 C 31.566406 -6.585938 30.554688 -6.507812 29.828125 -6.46875 C 29.453125 -6.4375 28.847656 -6.421875 28.015625 -6.421875 C 27.191406 -6.421875 26.3125 -6.410156 25.375 -6.390625 C 24.445312 -6.378906 23.578125 -6.375 22.765625 -6.375 C 21.953125 -6.375 21.375 -6.375 21.03125 -6.375 C 20.132812 -6.375 19.535156 -6.222656 19.234375 -5.921875 C 18.941406 -5.628906 18.765625 -5.125 18.703125 -4.40625 C 18.628906 -3.957031 18.582031 -3.359375 18.5625 -2.609375 C 18.550781 -1.867188 18.5625 -1.207031 18.59375 -0.625 C 18.59375 -0.207031 18.382812 0 17.96875 0 L 2.015625 0 C 1.609375 0 1.40625 -0.207031 1.40625 -0.625 C 1.40625 -0.625 1.421875 -1.035156 1.453125 -1.859375 C 1.484375 -2.691406 1.515625 -3.710938 1.546875 -4.921875 C 1.585938 -6.128906 1.613281 -7.316406 1.625 -8.484375 C 1.644531 -9.660156 1.65625 -10.628906 1.65625 -11.390625 C 1.6875 -14.296875 1.675781 -17.207031 1.625 -20.125 C 1.570312 -23.039062 1.53125 -25.96875 1.5 -28.90625 C 1.5 -30.039062 1.5 -31.195312 1.5 -32.375 C 1.5 -32.507812 1.550781 -32.578125 1.65625 -32.578125 L 34.546875 -32.578125 C 35.484375 -32.578125 36.457031 -32.367188 37.46875 -31.953125 C 38.488281 -31.546875 39.421875 -31.054688 40.265625 -30.484375 C 41.117188 -29.910156 41.75 -29.398438 42.15625 -28.953125 C 43.644531 -27.296875 44.5625 -25.328125 44.90625 -23.046875 Z M 27.25 -16.515625 C 27.382812 -16.515625 27.632812 -16.550781 28 -16.625 C 28.363281 -16.695312 28.695312 -16.851562 29 -17.09375 C 29.3125 -17.332031 29.46875 -17.710938 29.46875 -18.234375 C 29.46875 -18.753906 29.3125 -19.132812 29 -19.375 C 28.695312 -19.613281 28.367188 -19.773438 28.015625 -19.859375 C 27.671875 -19.953125 27.429688 -20 27.296875 -20 C 27.054688 -20 26.625 -20.003906 26 -20.015625 C 25.375 -20.035156 24.707031 -20.050781 24 -20.0625 C 23.300781 -20.082031 22.648438 -20.09375 22.046875 -20.09375 C 21.441406 -20.09375 21.015625 -20.09375 20.765625 -20.09375 C 20.628906 -20.09375 20.390625 -20.039062 20.046875 -19.9375 C 19.703125 -19.832031 19.390625 -19.660156 19.109375 -19.421875 C 18.835938 -19.179688 18.703125 -18.851562 18.703125 -18.4375 C 18.703125 -17.78125 18.890625 -17.304688 19.265625 -17.015625 C 19.648438 -16.722656 19.945312 -16.578125 20.15625 -16.578125 C 20.457031 -16.535156 20.945312 -16.503906 21.625 -16.484375 C 22.300781 -16.472656 23.023438 -16.46875 23.796875 -16.46875 C 24.578125 -16.46875 25.285156 -16.46875 25.921875 -16.46875 C 26.554688 -16.46875 27 -16.484375 27.25 -16.515625 Z M 27.25 -16.515625 "/></g></g></g><g fill="#010e9b" fill-opacity="1"><g transform="translate(186.006879, 40.9491)"><g><path d="M 42.984375 -2.84375 C 43.265625 -2.082031 43.539062 -1.320312 43.8125 -0.5625 C 43.882812 -0.425781 43.878906 -0.296875 43.796875 -0.171875 C 43.710938 -0.0546875 43.597656 0 43.453125 0 L 24.765625 0 C 24.515625 0 24.375 -0.140625 24.34375 -0.421875 C 24.34375 -0.484375 24.316406 -0.84375 24.265625 -1.5 C 24.210938 -2.15625 24.132812 -2.878906 24.03125 -3.671875 C 23.96875 -4.191406 23.910156 -4.703125 23.859375 -5.203125 C 23.804688 -5.703125 23.742188 -6.144531 23.671875 -6.53125 C 23.566406 -7.007812 23.296875 -7.359375 22.859375 -7.578125 C 22.429688 -7.804688 21.957031 -7.921875 21.4375 -7.921875 C 20.957031 -7.921875 20.5 -7.851562 20.0625 -7.71875 C 19.632812 -7.582031 19.351562 -7.148438 19.21875 -6.421875 C 19.113281 -5.867188 19.007812 -5.195312 18.90625 -4.40625 C 18.800781 -3.613281 18.710938 -2.84375 18.640625 -2.09375 C 18.578125 -1.351562 18.546875 -0.796875 18.546875 -0.421875 C 18.503906 -0.140625 18.363281 0 18.125 0 L 1.453125 0 C 1.316406 0 1.203125 -0.0507812 1.109375 -0.15625 C 1.023438 -0.257812 1 -0.378906 1.03125 -0.515625 C 1.28125 -1.304688 1.609375 -2.441406 2.015625 -3.921875 C 2.429688 -5.410156 2.878906 -7.113281 3.359375 -9.03125 C 3.847656 -10.945312 4.347656 -12.941406 4.859375 -15.015625 C 5.378906 -17.085938 5.878906 -19.097656 6.359375 -21.046875 C 6.847656 -23.003906 7.265625 -24.757812 7.609375 -26.3125 C 7.953125 -27.863281 8.210938 -29.070312 8.390625 -29.9375 C 8.523438 -30.695312 8.644531 -31.457031 8.75 -32.21875 C 8.789062 -32.457031 8.929688 -32.578125 9.171875 -32.578125 L 34.546875 -32.578125 C 34.785156 -32.578125 34.925781 -32.457031 34.96875 -32.21875 C 35.3125 -29.832031 35.773438 -27.484375 36.359375 -25.171875 C 36.941406 -22.859375 37.5625 -20.546875 38.21875 -18.234375 C 38.976562 -15.679688 39.738281 -13.109375 40.5 -10.515625 C 41.257812 -7.921875 42.085938 -5.363281 42.984375 -2.84375 Z M 20.609375 -21.03125 C 20.265625 -19.03125 20.125 -17.492188 20.1875 -16.421875 C 20.257812 -15.347656 20.800781 -14.878906 21.8125 -15.015625 C 22.425781 -15.117188 22.789062 -15.410156 22.90625 -15.890625 C 23.03125 -16.378906 23.050781 -16.914062 22.96875 -17.5 C 22.882812 -18.09375 22.828125 -18.597656 22.796875 -19.015625 C 22.753906 -19.460938 22.679688 -20.015625 22.578125 -20.671875 C 22.472656 -21.328125 22.332031 -21.90625 22.15625 -22.40625 C 21.988281 -22.90625 21.769531 -23.15625 21.5 -23.15625 C 21.15625 -23.113281 20.945312 -22.90625 20.875 -22.53125 C 20.800781 -22.15625 20.710938 -21.65625 20.609375 -21.03125 Z M 20.609375 -21.03125 "/></g></g></g></g></g><path stroke-linecap="round" transform="matrix(0.739312, -0.104649, 0.104649, 0.739312, 165.241829, 45.259999)" fill="none" stroke-linejoin="miter" d="M 4.49899 4.501492 L 21.739571 4.500852 " stroke="#ff8601" stroke-width="9" stroke-opacity="1" stroke-miterlimit="4"/><g clip-path="url(#9b3ff59cb9)"><path fill="#6bd662" d="M 288.683594 52.992188 L 272.132812 36.4375 C 271.136719 35.445312 271.136719 33.832031 272.132812 32.835938 L 275.734375 29.238281 C 276.730469 28.242188 278.339844 28.242188 279.335938 29.238281 L 290.484375 40.386719 L 314.367188 16.503906 C 315.363281 15.507812 316.976562 15.507812 317.96875 16.503906 L 321.570312 20.105469 C 322.566406 21.097656 322.566406 22.710938 321.570312 23.707031 L 292.285156 52.992188 C 291.292969 53.984375 289.679688 53.984375 288.683594 52.992188 Z M 288.683594 52.992188 " fill-opacity="1" fill-rule="nonzero"/></g></svg>