<svg xmlns="http://www.w3.org/2000/svg" xmlns:xlink="http://www.w3.org/1999/xlink" width="500" zoomAndPan="magnify" viewBox="0 0 375 374.999991" height="500" preserveAspectRatio="xMidYMid meet" version="1.0"><defs><g/><clipPath id="83a032da30"><rect x="0" width="273" y="0" height="315"/></clipPath><clipPath id="43945727f4"><rect x="0" width="134" y="0" height="290"/></clipPath></defs><g transform="matrix(1, 0, 0, 1, 23, 11)"><g clip-path="url(#83a032da30)"><g fill="#000000" fill-opacity="1"><g transform="translate(0.697496, 252.096253)"><g><path d="M 8.984375 -141.296875 L 46.234375 -141.296875 L 46.234375 -184.96875 L 84.78125 -184.96875 L 84.78125 -141.296875 L 137.4375 -141.296875 L 137.4375 -106.609375 L 84.78125 -106.609375 L 84.78125 -48.8125 C 84.78125 -44.351562 86.019531 -40.882812 88.5 -38.40625 C 90.976562 -35.925781 94.445312 -34.6875 98.90625 -34.6875 L 134.875 -34.6875 L 134.875 0 L 95.046875 0 C 79.804688 0 67.859375 -4.320312 59.203125 -12.96875 C 50.554688 -21.625 46.234375 -33.570312 46.234375 -48.8125 L 46.234375 -106.609375 L 8.984375 -106.609375 Z M 8.984375 -141.296875 "/></g></g></g><g fill="#000000" fill-opacity="1"><g transform="translate(127.597376, 252.096253)"><g><path d="M 70.390625 2.5625 C 52.742188 2.5625 38.953125 -0.816406 29.015625 -7.578125 C 19.085938 -14.335938 13.269531 -24.226562 11.5625 -37.25 L 50.09375 -37.25 C 51.289062 -33.3125 53.644531 -30.3125 57.15625 -28.25 C 60.664062 -26.195312 65.078125 -25.171875 70.390625 -25.171875 L 83.234375 -25.171875 C 90.421875 -25.171875 95.898438 -26.453125 99.671875 -29.015625 C 103.441406 -31.585938 105.328125 -35.273438 105.328125 -40.078125 C 105.328125 -48.460938 98.476562 -53.425781 84.78125 -54.96875 L 65.5 -57.03125 C 47.863281 -58.914062 34.890625 -63.410156 26.578125 -70.515625 C 18.273438 -77.617188 14.125 -87.765625 14.125 -100.953125 C 14.125 -114.828125 18.960938 -125.445312 28.640625 -132.8125 C 38.316406 -140.175781 52.234375 -143.859375 70.390625 -143.859375 L 83.234375 -143.859375 C 100.359375 -143.859375 113.757812 -140.601562 123.4375 -134.09375 C 133.113281 -127.582031 138.722656 -117.90625 140.265625 -105.0625 L 101.734375 -105.0625 C 99.847656 -112.601562 93.679688 -116.375 83.234375 -116.375 L 70.390625 -116.375 C 57.710938 -116.375 51.375 -112.09375 51.375 -103.53125 C 51.375 -95.3125 57.195312 -90.515625 68.84375 -89.140625 L 89.390625 -86.828125 C 124.847656 -82.710938 142.578125 -67.640625 142.578125 -41.609375 C 142.578125 -27.054688 137.523438 -16.054688 127.421875 -8.609375 C 117.316406 -1.160156 102.585938 2.5625 83.234375 2.5625 Z M 70.390625 2.5625 "/></g></g></g></g></g><g transform="matrix(1, 0, 0, 1, 241, 60)"><g clip-path="url(#43945727f4)"><g fill="#ff3131" fill-opacity="1"><g transform="translate(1.159007, 201.295224)"><g><path d="M 77.140625 -37.6875 C 83.160156 -37.6875 87.488281 -37.078125 90.125 -35.859375 C 92.769531 -34.648438 94.09375 -32.617188 94.09375 -29.765625 L 94.09375 -6.65625 C 94.09375 -3.8125 92.769531 -1.78125 90.125 -0.5625 C 87.488281 0.644531 83.160156 1.25 77.140625 1.25 C 71.109375 1.25 66.769531 0.644531 64.125 -0.5625 C 61.488281 -1.78125 60.171875 -3.8125 60.171875 -6.65625 L 60.171875 -29.765625 C 60.171875 -32.617188 61.488281 -34.648438 64.125 -35.859375 C 66.769531 -37.078125 71.109375 -37.6875 77.140625 -37.6875 Z M 77.140625 -37.6875 "/></g></g></g></g></g></svg>