<svg xmlns="http://www.w3.org/2000/svg" xmlns:xlink="http://www.w3.org/1999/xlink" width="500" zoomAndPan="magnify" viewBox="0 0 375 374.999991" height="500" preserveAspectRatio="xMidYMid meet" version="1.0"><defs><g/><clipPath id="2555decabc"><rect x="0" width="134" y="0" height="290"/></clipPath></defs><g fill="#FFFFff" fill-opacity="1"><g transform="translate(23.713276, 263.255995)"><g><path d="M 8.984375 -141.28125 L 46.234375 -141.28125 L 46.234375 -184.953125 L 84.765625 -184.953125 L 84.765625 -141.28125 L 137.421875 -141.28125 L 137.421875 -106.609375 L 84.765625 -106.609375 L 84.765625 -48.8125 C 84.765625 -44.351562 86.003906 -40.878906 88.484375 -38.390625 C 90.972656 -35.910156 94.441406 -34.671875 98.890625 -34.671875 L 134.859375 -34.671875 L 134.859375 0 L 95.046875 0 C 79.804688 0 67.859375 -4.320312 59.203125 -12.96875 C 50.554688 -21.613281 46.234375 -33.5625 46.234375 -48.8125 L 46.234375 -106.609375 L 8.984375 -106.609375 Z M 8.984375 -141.28125 "/></g></g></g><g fill="#ffffff" fill-opacity="1"><g transform="translate(150.612488, 263.255995)"><g><path d="M 70.390625 2.5625 C 52.742188 2.5625 38.953125 -0.816406 29.015625 -7.578125 C 19.085938 -14.335938 13.269531 -24.226562 11.5625 -37.25 L 50.09375 -37.25 C 51.289062 -33.3125 53.644531 -30.3125 57.15625 -28.25 C 60.664062 -26.195312 65.078125 -25.171875 70.390625 -25.171875 L 83.234375 -25.171875 C 90.421875 -25.171875 95.894531 -26.453125 99.65625 -29.015625 C 103.425781 -31.585938 105.3125 -35.273438 105.3125 -40.078125 C 105.3125 -48.460938 98.460938 -53.425781 84.765625 -54.96875 L 65.5 -57.03125 C 47.863281 -58.914062 34.890625 -63.410156 26.578125 -70.515625 C 18.273438 -77.617188 14.125 -87.765625 14.125 -100.953125 C 14.125 -114.828125 18.960938 -125.441406 28.640625 -132.796875 C 38.316406 -140.160156 52.234375 -143.84375 70.390625 -143.84375 L 83.234375 -143.84375 C 100.359375 -143.84375 113.753906 -140.585938 123.421875 -134.078125 C 133.097656 -127.578125 138.707031 -117.90625 140.25 -105.0625 L 101.71875 -105.0625 C 99.832031 -112.59375 93.671875 -116.359375 83.234375 -116.359375 L 70.390625 -116.359375 C 57.710938 -116.359375 51.375 -112.078125 51.375 -103.515625 C 51.375 -95.296875 57.195312 -90.503906 68.84375 -89.140625 L 89.390625 -86.828125 C 124.835938 -82.710938 142.5625 -67.640625 142.5625 -41.609375 C 142.5625 -27.054688 137.507812 -16.054688 127.40625 -8.609375 C 117.300781 -1.160156 102.578125 2.5625 83.234375 2.5625 Z M 70.390625 2.5625 "/></g></g></g><g transform="matrix(1, 0, 0, 1, 241, 60)"><g clip-path="url(#2555decabc)"><g fill="#ff3131" fill-opacity="1"><g transform="translate(1.159007, 201.295224)"><g><path d="M 77.140625 -37.6875 C 83.160156 -37.6875 87.488281 -37.078125 90.125 -35.859375 C 92.769531 -34.648438 94.09375 -32.617188 94.09375 -29.765625 L 94.09375 -6.65625 C 94.09375 -3.8125 92.769531 -1.78125 90.125 -0.5625 C 87.488281 0.644531 83.160156 1.25 77.140625 1.25 C 71.109375 1.25 66.769531 0.644531 64.125 -0.5625 C 61.488281 -1.78125 60.171875 -3.8125 60.171875 -6.65625 L 60.171875 -29.765625 C 60.171875 -32.617188 61.488281 -34.648438 64.125 -35.859375 C 66.769531 -37.078125 71.109375 -37.6875 77.140625 -37.6875 Z M 77.140625 -37.6875 "/></g></g></g></g></g></svg>