<svg xmlns="http://www.w3.org/2000/svg" xmlns:xlink="http://www.w3.org/1999/xlink" width="500" zoomAndPan="magnify" viewBox="0 0 375 374.999991" height="500" preserveAspectRatio="xMidYMid meet" version="1.0"><defs><g/><clipPath id="97e9a83464"><path d="M 58 26 L 276.839844 26 L 276.839844 80.320312 L 58 80.320312 Z M 58 26 " clip-rule="nonzero"/></clipPath><clipPath id="a24c029a82"><rect x="0" width="219" y="0" height="55"/></clipPath><clipPath id="7dbeae2fa8"><path d="M 148.148438 11.132812 L 166.8125 11.132812 L 166.8125 31.214844 L 148.148438 31.214844 Z M 148.148438 11.132812 " clip-rule="nonzero"/></clipPath><clipPath id="b376a94941"><path d="M 0.148438 0.132812 L 18.8125 0.132812 L 18.8125 20.214844 L 0.148438 20.214844 Z M 0.148438 0.132812 " clip-rule="nonzero"/></clipPath><clipPath id="6cec65f145"><rect x="0" width="19" y="0" height="21"/></clipPath><clipPath id="5f5624b945"><path d="M 0.359375 0.160156 L 176 0.160156 L 176 40 L 0.359375 40 Z M 0.359375 0.160156 " clip-rule="nonzero"/></clipPath><clipPath id="4f44424ff0"><rect x="0" width="176" y="0" height="40"/></clipPath><clipPath id="449531ca09"><path d="M 201.328125 7.222656 L 240.292969 7.222656 L 240.292969 36.585938 L 201.328125 36.585938 Z M 201.328125 7.222656 " clip-rule="nonzero"/></clipPath><clipPath id="2630c35072"><rect x="0" width="277" y="0" height="81"/></clipPath><clipPath id="dcc0fbf367"><path d="M 5.976562 24.707031 L 37.558594 24.707031 L 37.558594 45.019531 L 5.976562 45.019531 Z M 5.976562 24.707031 " clip-rule="nonzero"/></clipPath><clipPath id="f781410559"><path d="M 0.976562 0.707031 L 32.558594 0.707031 L 32.558594 21.019531 L 0.976562 21.019531 Z M 0.976562 0.707031 " clip-rule="nonzero"/></clipPath><clipPath id="0f6b86cc40"><rect x="0" width="33" y="0" height="22"/></clipPath><clipPath id="1bd6fbbe70"><path d="M 0 0.878906 L 55 0.878906 L 55 62 L 0 62 Z M 0 0.878906 " clip-rule="nonzero"/></clipPath><clipPath id="a3314fbf62"><rect x="0" width="55" y="0" height="62"/></clipPath><clipPath id="fee6f9097d"><path d="M 1 52.730469 L 21.808594 52.730469 L 21.808594 68.394531 L 1 68.394531 Z M 1 52.730469 " clip-rule="nonzero"/></clipPath><clipPath id="82a331c404"><path d="M 22 29 L 69.601562 29 L 69.601562 79.839844 L 22 79.839844 Z M 22 29 " clip-rule="nonzero"/></clipPath><clipPath id="55a33ab920"><rect x="0" width="48" y="0" height="51"/></clipPath><clipPath id="32567945c9"><rect x="0" width="70" y="0" height="80"/></clipPath></defs><rect x="-37.5" width="450" fill="#ffffff" y="-37.499999" height="449.999989" fill-opacity="1"/><rect x="-37.5" width="450" fill="#f4f0e5" y="-37.499999" height="449.999989" fill-opacity="1"/><g transform="matrix(1, 0, 0, 1, 27, 20)"><g clip-path="url(#2630c35072)"><g clip-path="url(#97e9a83464)"><g transform="matrix(1, 0, 0, 1, 58, 26)"><g clip-path="url(#a24c029a82)"><g fill="#ff8601" fill-opacity="1"><g transform="translate(0.867822, 42.987962)"><g><path d="M 46.75 -33.328125 C 46.75 -33.328125 46.75 -33.289062 46.75 -33.21875 C 46.75 -33.144531 46.75 -33.109375 46.75 -33.109375 C 46.75 -33.066406 46.738281 -32.6875 46.71875 -31.96875 C 46.695312 -31.257812 46.675781 -30.441406 46.65625 -29.515625 C 46.644531 -28.597656 46.640625 -27.832031 46.640625 -27.21875 C 46.640625 -26.90625 46.644531 -26.363281 46.65625 -25.59375 C 46.675781 -24.820312 46.695312 -24.113281 46.71875 -23.46875 C 46.738281 -22.832031 46.75 -22.515625 46.75 -22.515625 C 46.75 -22.304688 46.640625 -22.203125 46.421875 -22.203125 C 44.609375 -22.203125 42.78125 -22.207031 40.9375 -22.21875 C 39.101562 -22.238281 37.257812 -22.265625 35.40625 -22.296875 C 34.976562 -22.296875 34.328125 -22.320312 33.453125 -22.375 C 32.578125 -22.4375 31.648438 -22.484375 30.671875 -22.515625 C 29.691406 -22.554688 28.804688 -22.582031 28.015625 -22.59375 C 27.234375 -22.613281 26.703125 -22.585938 26.421875 -22.515625 C 25.921875 -22.410156 25.554688 -22.160156 25.328125 -21.765625 C 25.097656 -21.378906 24.953125 -20.96875 24.890625 -20.53125 C 24.835938 -20.101562 24.832031 -19.820312 24.875 -19.6875 C 24.976562 -18.863281 25.269531 -18.429688 25.75 -18.390625 C 26.226562 -18.359375 26.863281 -18.289062 27.65625 -18.1875 C 28.46875 -18.082031 29.523438 -18.054688 30.828125 -18.109375 C 32.128906 -18.160156 33.191406 -18.148438 34.015625 -18.078125 C 35.085938 -18.046875 36.015625 -18.054688 36.796875 -18.109375 C 37.578125 -18.160156 38.59375 -18.164062 39.84375 -18.125 C 40.84375 -18.125 41.929688 -18.125 43.109375 -18.125 C 44.285156 -18.125 45.390625 -18.160156 46.421875 -18.234375 C 46.640625 -18.273438 46.75 -18.1875 46.75 -17.96875 C 46.75 -17.96875 46.71875 -17.617188 46.65625 -16.921875 C 46.601562 -16.234375 46.578125 -15.476562 46.578125 -14.65625 C 46.578125 -14.226562 46.585938 -13.613281 46.609375 -12.8125 C 46.628906 -12.007812 46.65625 -11.285156 46.6875 -10.640625 C 46.726562 -10.003906 46.75 -9.6875 46.75 -9.6875 C 46.75 -9.46875 46.640625 -9.359375 46.421875 -9.359375 C 45.785156 -9.359375 45.132812 -9.359375 44.46875 -9.359375 C 43.8125 -9.359375 43.144531 -9.359375 42.46875 -9.359375 C 42.039062 -9.390625 41.28125 -9.421875 40.1875 -9.453125 C 39.101562 -9.492188 37.835938 -9.523438 36.390625 -9.546875 C 34.953125 -9.566406 33.492188 -9.539062 32.015625 -9.46875 C 30.535156 -9.394531 29.1875 -9.25 27.96875 -9.03125 C 26.832031 -8.789062 26.054688 -8.515625 25.640625 -8.203125 C 25.234375 -7.898438 24.976562 -7.554688 24.875 -7.171875 C 24.550781 -6.242188 24.425781 -5.144531 24.5 -3.875 C 24.570312 -2.613281 24.640625 -1.429688 24.703125 -0.328125 C 24.703125 -0.109375 24.597656 0 24.390625 0 L 1.921875 0 C 1.710938 0 1.609375 -0.109375 1.609375 -0.328125 C 1.609375 -0.328125 1.597656 -0.582031 1.578125 -1.09375 C 1.554688 -1.613281 1.535156 -2.28125 1.515625 -3.09375 C 1.503906 -3.914062 1.488281 -4.753906 1.46875 -5.609375 C 1.445312 -6.472656 1.4375 -7.242188 1.4375 -7.921875 C 1.4375 -8.453125 1.445312 -9.242188 1.46875 -10.296875 C 1.488281 -11.347656 1.515625 -12.523438 1.546875 -13.828125 C 1.585938 -15.128906 1.613281 -16.429688 1.625 -17.734375 C 1.644531 -19.035156 1.65625 -20.21875 1.65625 -21.28125 C 1.65625 -22.351562 1.640625 -23.175781 1.609375 -23.75 C 1.566406 -24.570312 1.570312 -25.507812 1.625 -26.5625 C 1.6875 -27.613281 1.679688 -28.546875 1.609375 -29.359375 L 1.609375 -33.328125 C 1.609375 -33.535156 1.710938 -33.640625 1.921875 -33.640625 L 46.421875 -33.640625 C 46.640625 -33.640625 46.75 -33.535156 46.75 -33.328125 Z M 46.75 -33.328125 "/></g></g></g><g fill="#ff8601" fill-opacity="1"><g transform="translate(49.209781, 42.987962)"><g><path d="M 44.390625 -2.9375 C 44.671875 -2.15625 44.957031 -1.375 45.25 -0.59375 C 45.320312 -0.445312 45.3125 -0.3125 45.21875 -0.1875 C 45.132812 -0.0625 45.019531 0 44.875 0 L 25.5625 0 C 25.3125 0 25.171875 -0.140625 25.140625 -0.421875 C 25.140625 -0.492188 25.113281 -0.867188 25.0625 -1.546875 C 25.007812 -2.222656 24.925781 -2.972656 24.8125 -3.796875 C 24.738281 -4.328125 24.675781 -4.851562 24.625 -5.375 C 24.570312 -5.894531 24.507812 -6.347656 24.4375 -6.734375 C 24.332031 -7.234375 24.054688 -7.597656 23.609375 -7.828125 C 23.160156 -8.066406 22.671875 -8.1875 22.140625 -8.1875 C 21.640625 -8.1875 21.164062 -8.113281 20.71875 -7.96875 C 20.28125 -7.820312 19.988281 -7.375 19.84375 -6.625 C 19.738281 -6.0625 19.628906 -5.367188 19.515625 -4.546875 C 19.410156 -3.722656 19.320312 -2.925781 19.25 -2.15625 C 19.175781 -1.394531 19.140625 -0.816406 19.140625 -0.421875 C 19.109375 -0.140625 18.96875 0 18.71875 0 L 1.5 0 C 1.351562 0 1.234375 -0.0507812 1.140625 -0.15625 C 1.054688 -0.269531 1.03125 -0.394531 1.0625 -0.53125 C 1.3125 -1.351562 1.648438 -2.53125 2.078125 -4.0625 C 2.515625 -5.59375 2.976562 -7.347656 3.46875 -9.328125 C 3.96875 -11.304688 4.484375 -13.363281 5.015625 -15.5 C 5.554688 -17.644531 6.078125 -19.722656 6.578125 -21.734375 C 7.078125 -23.753906 7.503906 -25.566406 7.859375 -27.171875 C 8.210938 -28.773438 8.484375 -30.019531 8.671875 -30.90625 C 8.804688 -31.695312 8.925781 -32.484375 9.03125 -33.265625 C 9.070312 -33.515625 9.21875 -33.640625 9.46875 -33.640625 L 35.671875 -33.640625 C 35.921875 -33.640625 36.066406 -33.515625 36.109375 -33.265625 C 36.460938 -30.804688 36.941406 -28.378906 37.546875 -25.984375 C 38.148438 -23.597656 38.789062 -21.210938 39.46875 -18.828125 C 40.25 -16.191406 41.03125 -13.535156 41.8125 -10.859375 C 42.601562 -8.179688 43.460938 -5.539062 44.390625 -2.9375 Z M 21.28125 -21.71875 C 20.925781 -19.644531 20.785156 -18.054688 20.859375 -16.953125 C 20.929688 -15.847656 21.484375 -15.367188 22.515625 -15.515625 C 23.160156 -15.617188 23.546875 -15.921875 23.671875 -16.421875 C 23.796875 -16.921875 23.8125 -17.472656 23.71875 -18.078125 C 23.632812 -18.679688 23.570312 -19.195312 23.53125 -19.625 C 23.5 -20.09375 23.425781 -20.664062 23.3125 -21.34375 C 23.207031 -22.019531 23.066406 -22.613281 22.890625 -23.125 C 22.710938 -23.644531 22.484375 -23.90625 22.203125 -23.90625 C 21.835938 -23.875 21.617188 -23.660156 21.546875 -23.265625 C 21.484375 -22.867188 21.394531 -22.351562 21.28125 -21.71875 Z M 21.28125 -21.71875 "/></g></g></g><g fill="#ff8601" fill-opacity="1"><g transform="translate(95.6801, 42.987962)"><g><path d="M 46.3125 -9.09375 C 46.3125 -8.5625 46.3125 -7.832031 46.3125 -6.90625 C 46.3125 -5.976562 46.320312 -5.019531 46.34375 -4.03125 C 46.363281 -3.050781 46.378906 -2.222656 46.390625 -1.546875 C 46.410156 -0.867188 46.421875 -0.53125 46.421875 -0.53125 C 46.421875 -0.175781 46.257812 0 45.9375 0 L 15.03125 0 C 13.382812 0 11.660156 -0.300781 9.859375 -0.90625 C 8.066406 -1.507812 6.457031 -2.546875 5.03125 -4.015625 C 3.632812 -5.472656 2.671875 -6.976562 2.140625 -8.53125 C 1.609375 -10.082031 1.34375 -11.710938 1.34375 -13.421875 C 1.34375 -13.421875 1.34375 -13.429688 1.34375 -13.453125 C 1.34375 -13.472656 1.34375 -13.484375 1.34375 -13.484375 L 1.34375 -19.953125 C 1.34375 -19.953125 1.34375 -19.957031 1.34375 -19.96875 C 1.34375 -19.988281 1.34375 -20 1.34375 -20 C 1.34375 -21.28125 1.394531 -22.445312 1.5 -23.5 C 1.601562 -24.550781 1.816406 -25.5625 2.140625 -26.53125 C 2.421875 -27.414062 2.835938 -28.210938 3.390625 -28.921875 C 3.941406 -29.640625 4.59375 -30.300781 5.34375 -30.90625 C 6.632812 -31.945312 7.894531 -32.632812 9.125 -32.96875 C 10.351562 -33.3125 11.679688 -33.535156 13.109375 -33.640625 L 45.9375 -33.640625 C 46.257812 -33.640625 46.421875 -33.476562 46.421875 -33.15625 L 46.421875 -30.109375 C 46.421875 -30.003906 46.410156 -29.640625 46.390625 -29.015625 C 46.378906 -28.390625 46.375 -27.710938 46.375 -26.984375 C 46.375 -26.253906 46.375 -25.675781 46.375 -25.25 C 46.375 -24.675781 46.378906 -24.101562 46.390625 -23.53125 C 46.410156 -22.957031 46.421875 -22.390625 46.421875 -21.828125 L 46.421875 -20 C 46.421875 -19.675781 46.257812 -19.5 45.9375 -19.46875 C 45.082031 -19.46875 43.96875 -19.472656 42.59375 -19.484375 C 41.226562 -19.503906 39.773438 -19.53125 38.234375 -19.5625 C 36.703125 -19.601562 35.234375 -19.640625 33.828125 -19.671875 C 32.421875 -19.710938 31.234375 -19.75 30.265625 -19.78125 C 29.304688 -19.820312 28.738281 -19.84375 28.5625 -19.84375 C 28.03125 -19.84375 27.503906 -19.796875 26.984375 -19.703125 C 26.460938 -19.617188 25.988281 -19.429688 25.5625 -19.140625 C 25.207031 -18.929688 24.90625 -18.640625 24.65625 -18.265625 C 24.40625 -17.890625 24.28125 -17.488281 24.28125 -17.0625 C 24.28125 -16.664062 24.394531 -16.328125 24.625 -16.046875 C 24.863281 -15.765625 25.125 -15.53125 25.40625 -15.34375 C 26.007812 -14.988281 26.6875 -14.757812 27.4375 -14.65625 C 28.1875 -14.550781 28.898438 -14.460938 29.578125 -14.390625 C 30.035156 -14.347656 30.867188 -14.328125 32.078125 -14.328125 C 33.296875 -14.328125 34.671875 -14.335938 36.203125 -14.359375 C 37.742188 -14.378906 39.242188 -14.394531 40.703125 -14.40625 C 42.160156 -14.425781 43.378906 -14.445312 44.359375 -14.46875 C 45.347656 -14.488281 45.875 -14.5 45.9375 -14.5 C 46.15625 -14.5 46.316406 -14.390625 46.421875 -14.171875 C 46.390625 -13.316406 46.363281 -12.46875 46.34375 -11.625 C 46.320312 -10.789062 46.3125 -9.945312 46.3125 -9.09375 Z M 46.3125 -9.09375 "/></g></g></g><g fill="#ff8601" fill-opacity="1"><g transform="translate(143.701209, 42.987962)"><g><path d="M 1.65625 -33.640625 L 24.234375 -33.640625 C 24.660156 -33.640625 24.851562 -33.425781 24.8125 -33 C 24.632812 -30.394531 24.585938 -27.738281 24.671875 -25.03125 C 24.765625 -22.320312 24.832031 -19.628906 24.875 -16.953125 C 24.875 -15.453125 24.851562 -13.972656 24.8125 -12.515625 C 24.78125 -11.054688 24.78125 -9.578125 24.8125 -8.078125 C 24.851562 -6.828125 24.90625 -5.585938 24.96875 -4.359375 C 25.039062 -3.128906 25.132812 -1.890625 25.25 -0.640625 C 25.28125 -0.210938 25.082031 0 24.65625 0 L 1.71875 0 C 1.570312 0 1.515625 -0.0859375 1.546875 -0.265625 C 1.617188 -0.734375 1.671875 -1.585938 1.703125 -2.828125 C 1.742188 -4.078125 1.765625 -5.476562 1.765625 -7.03125 C 1.765625 -8.582031 1.753906 -10.046875 1.734375 -11.421875 C 1.722656 -12.796875 1.695312 -13.835938 1.65625 -14.546875 C 1.65625 -15.398438 1.644531 -16.519531 1.625 -17.90625 C 1.613281 -19.300781 1.597656 -20.800781 1.578125 -22.40625 C 1.554688 -24.007812 1.535156 -25.566406 1.515625 -27.078125 C 1.503906 -28.597656 1.488281 -29.925781 1.46875 -31.0625 C 1.445312 -32.207031 1.4375 -32.992188 1.4375 -33.421875 C 1.476562 -33.460938 1.550781 -33.535156 1.65625 -33.640625 Z M 1.65625 -33.640625 "/></g></g></g><g fill="#ff8601" fill-opacity="1"><g transform="translate(170.385541, 42.987962)"><g><path d="M 46.421875 -5.40625 C 46.421875 -5.15625 46.429688 -4.757812 46.453125 -4.21875 C 46.472656 -3.6875 46.488281 -3.125 46.5 -2.53125 C 46.519531 -1.945312 46.535156 -1.441406 46.546875 -1.015625 C 46.566406 -0.585938 46.578125 -0.375 46.578125 -0.375 C 46.578125 -0.125 46.453125 0 46.203125 0 L 1.875 0 C 1.625 0 1.5 -0.125 1.5 -0.375 L 1.5 -1.234375 C 1.5 -1.265625 1.5 -1.28125 1.5 -1.28125 C 1.5 -1.351562 1.5 -1.425781 1.5 -1.5 C 1.5 -1.5 1.503906 -2 1.515625 -3 C 1.535156 -4 1.546875 -5.316406 1.546875 -6.953125 C 1.546875 -8.585938 1.546875 -10.40625 1.546875 -12.40625 C 1.546875 -14.40625 1.554688 -16.410156 1.578125 -18.421875 C 1.597656 -20.441406 1.609375 -22.304688 1.609375 -24.015625 C 1.609375 -25.722656 1.609375 -27.140625 1.609375 -28.265625 C 1.609375 -29.390625 1.585938 -30.039062 1.546875 -30.21875 C 1.546875 -30.71875 1.535156 -31.222656 1.515625 -31.734375 C 1.503906 -32.253906 1.515625 -32.785156 1.546875 -33.328125 C 1.585938 -33.535156 1.734375 -33.640625 1.984375 -33.640625 L 23.6875 -33.640625 C 23.9375 -33.640625 24.0625 -33.515625 24.0625 -33.265625 C 24.0625 -32.804688 24.070312 -31.929688 24.09375 -30.640625 C 24.113281 -29.359375 24.128906 -27.890625 24.140625 -26.234375 C 24.160156 -24.578125 24.179688 -22.953125 24.203125 -21.359375 C 24.222656 -19.773438 24.238281 -18.421875 24.25 -17.296875 C 24.269531 -16.179688 24.296875 -15.550781 24.328125 -15.40625 C 24.328125 -14.9375 24.300781 -14.460938 24.25 -13.984375 C 24.195312 -13.503906 24.257812 -13.140625 24.4375 -12.890625 C 24.613281 -12.671875 24.851562 -12.546875 25.15625 -12.515625 C 25.46875 -12.484375 25.875 -12.429688 26.375 -12.359375 C 26.832031 -12.285156 27.46875 -12.238281 28.28125 -12.21875 C 29.101562 -12.195312 29.925781 -12.1875 30.75 -12.1875 C 31.570312 -12.1875 32.210938 -12.1875 32.671875 -12.1875 C 33.140625 -12.15625 33.988281 -12.15625 35.21875 -12.1875 C 36.445312 -12.226562 37.8125 -12.273438 39.3125 -12.328125 C 40.8125 -12.378906 42.210938 -12.414062 43.515625 -12.4375 C 44.816406 -12.457031 45.769531 -12.46875 46.375 -12.46875 C 46.476562 -12.46875 46.53125 -12.410156 46.53125 -12.296875 C 46.5625 -12.117188 46.578125 -11.90625 46.578125 -11.65625 C 46.578125 -11.65625 46.566406 -11.46875 46.546875 -11.09375 C 46.535156 -10.71875 46.519531 -10.296875 46.5 -9.828125 C 46.488281 -9.367188 46.460938 -9.015625 46.421875 -8.765625 C 46.390625 -8.203125 46.375 -7.632812 46.375 -7.0625 C 46.375 -6.488281 46.390625 -5.9375 46.421875 -5.40625 Z M 46.421875 -5.40625 "/></g></g></g></g></g></g><g clip-path="url(#7dbeae2fa8)"><g transform="matrix(1, 0, 0, 1, 148, 11)"><g clip-path="url(#6cec65f145)"><g clip-path="url(#b376a94941)"><path fill="#ffe538" d="M 0.148438 0.132812 L 18.8125 0.132812 L 18.8125 20.183594 L 0.148438 20.183594 Z M 0.148438 0.132812 " fill-opacity="1" fill-rule="nonzero"/></g></g></g></g><g clip-path="url(#5f5624b945)"><g><g clip-path="url(#4f44424ff0)"><g fill="#010e9b" fill-opacity="1"><g transform="translate(0.751134, 31.009171)"><g><path d="M 34 -10.609375 C 34 -10.378906 33.96875 -9.90625 33.90625 -9.1875 C 33.84375 -8.46875 33.71875 -7.726562 33.53125 -6.96875 C 33.34375 -6.320312 33.113281 -5.675781 32.84375 -5.03125 C 32.570312 -4.394531 32.097656 -3.722656 31.421875 -3.015625 C 30.710938 -2.304688 29.640625 -1.625 28.203125 -0.96875 C 26.765625 -0.320312 24.882812 0 22.5625 0 L 1.5625 0 C 1.300781 0 1.1875 -0.128906 1.21875 -0.390625 C 1.269531 -0.597656 1.300781 -1.082031 1.3125 -1.84375 C 1.320312 -2.601562 1.328125 -3.472656 1.328125 -4.453125 C 1.328125 -5.429688 1.328125 -6.367188 1.328125 -7.265625 C 1.328125 -8.171875 1.316406 -8.882812 1.296875 -9.40625 C 1.265625 -10.550781 1.222656 -11.695312 1.171875 -12.84375 C 1.117188 -14 1.082031 -15.148438 1.0625 -16.296875 L 1.0625 -23.03125 C 1.082031 -23.445312 1.109375 -23.878906 1.140625 -24.328125 C 1.140625 -24.535156 1.242188 -24.640625 1.453125 -24.640625 L 23.15625 -24.640625 C 23.15625 -24.640625 23.160156 -24.640625 23.171875 -24.640625 C 23.179688 -24.640625 23.1875 -24.640625 23.1875 -24.640625 C 23.738281 -24.554688 24.40625 -24.445312 25.1875 -24.3125 C 25.96875 -24.1875 26.796875 -23.960938 27.671875 -23.640625 C 28.546875 -23.316406 29.390625 -22.851562 30.203125 -22.25 C 31.035156 -21.644531 31.6875 -20.953125 32.15625 -20.171875 C 32.625 -19.390625 32.976562 -18.601562 33.21875 -17.8125 C 33.457031 -17.03125 33.628906 -16.367188 33.734375 -15.828125 C 33.804688 -15.378906 33.867188 -14.925781 33.921875 -14.46875 C 33.972656 -14.007812 34 -13.5625 34 -13.125 C 34 -12.863281 34 -12.484375 34 -11.984375 C 34 -11.492188 34 -11.035156 34 -10.609375 Z M 13.125 -11 C 13.28125 -11.03125 13.671875 -11.035156 14.296875 -11.015625 C 14.921875 -11.003906 15.65625 -11.003906 16.5 -11.015625 C 17.351562 -11.035156 18.210938 -11.070312 19.078125 -11.125 C 19.941406 -11.175781 20.6875 -11.28125 21.3125 -11.4375 C 21.75 -11.519531 22.019531 -11.679688 22.125 -11.921875 C 22.226562 -12.171875 22.257812 -12.410156 22.21875 -12.640625 C 22.1875 -12.878906 22.15625 -13.015625 22.125 -13.046875 C 21.894531 -13.359375 21.609375 -13.546875 21.265625 -13.609375 C 20.929688 -13.671875 20.582031 -13.726562 20.21875 -13.78125 C 20.0625 -13.8125 19.664062 -13.828125 19.03125 -13.828125 C 18.40625 -13.828125 17.703125 -13.828125 16.921875 -13.828125 C 16.140625 -13.828125 15.398438 -13.828125 14.703125 -13.828125 C 14.015625 -13.828125 13.523438 -13.8125 13.234375 -13.78125 L 13.203125 -13.78125 C 13.015625 -13.8125 12.867188 -13.800781 12.765625 -13.75 C 12.660156 -13.695312 12.609375 -13.539062 12.609375 -13.28125 L 12.609375 -11.640625 C 12.609375 -11.453125 12.65625 -11.289062 12.75 -11.15625 C 12.84375 -11.03125 12.96875 -10.976562 13.125 -11 Z M 13.125 -11 "/></g></g></g><g fill="#010e9b" fill-opacity="1"><g transform="translate(35.804429, 31.009171)"><g><path d="M 33.8125 -6.5 C 33.8125 -6.320312 33.816406 -5.910156 33.828125 -5.265625 C 33.835938 -4.628906 33.847656 -3.925781 33.859375 -3.15625 C 33.878906 -2.382812 33.898438 -1.71875 33.921875 -1.15625 C 33.953125 -0.59375 33.96875 -0.3125 33.96875 -0.3125 C 33.96875 -0.101562 33.847656 0 33.609375 0 L 1.296875 0 C 1.085938 0 0.984375 -0.117188 0.984375 -0.359375 C 1.054688 -2.335938 1.101562 -4.332031 1.125 -6.34375 C 1.15625 -8.351562 1.171875 -10.363281 1.171875 -12.375 C 1.203125 -14.3125 1.273438 -16.257812 1.390625 -18.21875 C 1.503906 -20.175781 1.429688 -22.117188 1.171875 -24.046875 C 1.148438 -24.078125 1.140625 -24.109375 1.140625 -24.140625 C 1.140625 -24.179688 1.140625 -24.21875 1.140625 -24.25 C 1.085938 -24.507812 1.191406 -24.640625 1.453125 -24.640625 L 33.484375 -24.640625 C 33.648438 -24.640625 33.757812 -24.5625 33.8125 -24.40625 L 33.8125 -24.359375 C 33.8125 -24.359375 33.8125 -24.125 33.8125 -23.65625 C 33.8125 -23.1875 33.800781 -22.613281 33.78125 -21.9375 C 33.769531 -21.257812 33.757812 -20.570312 33.75 -19.875 C 33.738281 -19.1875 33.734375 -18.613281 33.734375 -18.15625 C 33.734375 -17.695312 33.734375 -17.46875 33.734375 -17.46875 C 33.734375 -17.257812 33.625 -17.15625 33.40625 -17.15625 C 33.40625 -17.15625 33.148438 -17.15625 32.640625 -17.15625 C 32.140625 -17.15625 31.507812 -17.148438 30.75 -17.140625 C 29.988281 -17.128906 29.195312 -17.125 28.375 -17.125 C 27.550781 -17.125 26.800781 -17.128906 26.125 -17.140625 C 25.445312 -17.148438 24.960938 -17.15625 24.671875 -17.15625 C 23.679688 -17.207031 22.679688 -17.234375 21.671875 -17.234375 C 20.671875 -17.234375 19.675781 -17.171875 18.6875 -17.046875 C 18.289062 -16.992188 17.882812 -16.875 17.46875 -16.6875 C 17.050781 -16.5 16.832031 -16.171875 16.8125 -15.703125 C 16.78125 -15.421875 16.863281 -15.175781 17.0625 -14.96875 C 17.257812 -14.757812 17.488281 -14.613281 17.75 -14.53125 C 18.03125 -14.425781 18.332031 -14.375 18.65625 -14.375 C 18.988281 -14.375 19.3125 -14.375 19.625 -14.375 C 19.9375 -14.375 20.476562 -14.378906 21.25 -14.390625 C 22.019531 -14.410156 22.90625 -14.421875 23.90625 -14.421875 C 24.914062 -14.421875 25.957031 -14.421875 27.03125 -14.421875 C 28.101562 -14.421875 29.101562 -14.425781 30.03125 -14.4375 C 30.957031 -14.445312 31.722656 -14.453125 32.328125 -14.453125 C 32.941406 -14.453125 33.300781 -14.453125 33.40625 -14.453125 C 33.625 -14.453125 33.734375 -14.347656 33.734375 -14.140625 C 33.734375 -14.140625 33.734375 -13.921875 33.734375 -13.484375 C 33.734375 -13.054688 33.738281 -12.554688 33.75 -11.984375 C 33.757812 -11.410156 33.769531 -10.875 33.78125 -10.375 C 33.800781 -9.882812 33.8125 -9.585938 33.8125 -9.484375 C 33.8125 -9.273438 33.691406 -9.171875 33.453125 -9.171875 C 32.535156 -9.171875 31.617188 -9.160156 30.703125 -9.140625 C 29.796875 -9.128906 28.882812 -9.140625 27.96875 -9.171875 C 27.519531 -9.171875 26.90625 -9.175781 26.125 -9.1875 C 25.34375 -9.195312 24.523438 -9.210938 23.671875 -9.234375 C 22.828125 -9.265625 22.066406 -9.285156 21.390625 -9.296875 C 20.710938 -9.316406 20.269531 -9.328125 20.0625 -9.328125 C 19.769531 -9.296875 19.429688 -9.28125 19.046875 -9.28125 C 18.671875 -9.28125 18.3125 -9.226562 17.96875 -9.125 C 17.632812 -9.019531 17.390625 -8.8125 17.234375 -8.5 C 16.972656 -8 17.007812 -7.585938 17.34375 -7.265625 C 17.6875 -6.941406 18.066406 -6.726562 18.484375 -6.625 C 19.003906 -6.488281 19.523438 -6.441406 20.046875 -6.484375 C 20.578125 -6.523438 21.101562 -6.546875 21.625 -6.546875 C 22.007812 -6.546875 22.59375 -6.550781 23.375 -6.5625 C 24.164062 -6.570312 25.050781 -6.585938 26.03125 -6.609375 C 27.007812 -6.640625 27.988281 -6.664062 28.96875 -6.6875 C 29.945312 -6.71875 30.832031 -6.738281 31.625 -6.75 C 32.425781 -6.769531 33.035156 -6.789062 33.453125 -6.8125 C 33.691406 -6.8125 33.8125 -6.707031 33.8125 -6.5 Z M 33.8125 -6.5 "/></g></g></g><g fill="#010e9b" fill-opacity="1"><g transform="translate(70.857724, 31.009171)"><g><path d="M 33.609375 -24.640625 C 33.640625 -24.609375 33.679688 -24.566406 33.734375 -24.515625 C 33.785156 -23.660156 33.785156 -22.890625 33.734375 -22.203125 C 33.679688 -21.523438 33.65625 -20.820312 33.65625 -20.09375 C 33.65625 -19.78125 33.6875 -19.320312 33.75 -18.71875 C 33.8125 -18.125 33.84375 -17.671875 33.84375 -17.359375 C 33.875 -17.117188 33.753906 -17 33.484375 -17 C 32.179688 -17.050781 30.882812 -17.109375 29.59375 -17.171875 C 28.300781 -17.242188 26.859375 -17.289062 25.265625 -17.3125 C 24.171875 -17.3125 23.117188 -17.332031 22.109375 -17.375 C 21.109375 -17.414062 20.28125 -17.421875 19.625 -17.390625 C 18.632812 -17.367188 17.785156 -17.289062 17.078125 -17.15625 C 16.367188 -17.03125 16.015625 -16.726562 16.015625 -16.25 C 16.015625 -15.78125 16.148438 -15.488281 16.421875 -15.375 C 16.703125 -15.257812 16.9375 -15.1875 17.125 -15.15625 C 17.820312 -15.050781 18.425781 -15 18.9375 -15 C 19.445312 -15 20.066406 -15.023438 20.796875 -15.078125 C 21.628906 -15.109375 22.539062 -15.113281 23.53125 -15.09375 C 24.53125 -15.082031 25.460938 -15.050781 26.328125 -15 C 27.179688 -14.945312 27.96875 -14.835938 28.6875 -14.671875 C 29.40625 -14.503906 30.09375 -14.128906 30.75 -13.546875 C 31.300781 -13.078125 31.738281 -12.679688 32.0625 -12.359375 C 32.382812 -12.035156 32.664062 -11.53125 32.90625 -10.84375 C 33.425781 -9.4375 33.617188 -7.953125 33.484375 -6.390625 C 33.484375 -6.285156 33.441406 -6.019531 33.359375 -5.59375 C 33.285156 -5.175781 33.148438 -4.710938 32.953125 -4.203125 C 32.765625 -3.703125 32.515625 -3.226562 32.203125 -2.78125 C 31.734375 -2.15625 31.175781 -1.664062 30.53125 -1.3125 C 29.894531 -0.957031 29.429688 -0.742188 29.140625 -0.671875 C 28.460938 -0.460938 27.8125 -0.316406 27.1875 -0.234375 C 26.5625 -0.160156 25.894531 -0.109375 25.1875 -0.078125 C 24.894531 -0.0546875 24.597656 -0.046875 24.296875 -0.046875 C 24.003906 -0.046875 23.703125 -0.046875 23.390625 -0.046875 C 23.335938 -0.046875 23.269531 -0.03125 23.1875 0 C 23.164062 0 23.140625 0 23.109375 0 L 1.375 0 C 1.164062 0 1.046875 -0.101562 1.015625 -0.3125 C 1.015625 -0.625 1.019531 -0.9375 1.03125 -1.25 C 1.050781 -1.5625 1.070312 -1.875 1.09375 -2.1875 C 1.175781 -2.976562 1.203125 -3.769531 1.171875 -4.5625 C 1.148438 -5.363281 1.140625 -6.15625 1.140625 -6.9375 C 1.140625 -7.164062 1.253906 -7.269531 1.484375 -7.25 C 1.640625 -7.25 2.085938 -7.234375 2.828125 -7.203125 C 3.578125 -7.179688 4.492188 -7.15625 5.578125 -7.125 C 6.660156 -7.101562 7.816406 -7.082031 9.046875 -7.0625 C 10.273438 -7.050781 11.453125 -7.046875 12.578125 -7.046875 C 13.703125 -7.046875 14.664062 -7.054688 15.46875 -7.078125 C 16.28125 -7.109375 16.804688 -7.164062 17.046875 -7.25 C 17.273438 -7.300781 17.523438 -7.394531 17.796875 -7.53125 C 18.078125 -7.675781 18.175781 -8 18.09375 -8.5 C 18.019531 -8.914062 17.691406 -9.179688 17.109375 -9.296875 C 16.535156 -9.421875 15.898438 -9.46875 15.203125 -9.4375 C 15.066406 -9.414062 14.632812 -9.394531 13.90625 -9.375 C 13.175781 -9.363281 12.296875 -9.367188 11.265625 -9.390625 C 10.234375 -9.421875 9.179688 -9.472656 8.109375 -9.546875 C 7.035156 -9.628906 6.066406 -9.753906 5.203125 -9.921875 C 4.347656 -10.097656 3.738281 -10.328125 3.375 -10.609375 C 2.875 -10.972656 2.46875 -11.382812 2.15625 -11.84375 C 1.84375 -12.300781 1.609375 -12.738281 1.453125 -13.15625 C 1.054688 -14.332031 0.910156 -15.5625 1.015625 -16.84375 C 1.117188 -18.125 1.429688 -19.335938 1.953125 -20.484375 C 2.085938 -20.796875 2.359375 -21.265625 2.765625 -21.890625 C 3.171875 -22.523438 3.6875 -23.035156 4.3125 -23.421875 C 5.039062 -23.921875 5.816406 -24.25 6.640625 -24.40625 C 7.460938 -24.5625 8.015625 -24.640625 8.296875 -24.640625 Z M 33.609375 -24.640625 "/></g></g></g><g fill="#010e9b" fill-opacity="1"><g transform="translate(105.676025, 31.009171)"><g><path d="M 33.96875 -17.4375 C 34.039062 -16.988281 34.070312 -16.539062 34.0625 -16.09375 C 34.050781 -15.65625 34.03125 -15.210938 34 -14.765625 C 33.976562 -14.347656 33.941406 -13.921875 33.890625 -13.484375 C 33.835938 -13.054688 33.757812 -12.632812 33.65625 -12.21875 C 33.46875 -11.507812 33.175781 -10.722656 32.78125 -9.859375 C 32.394531 -9.003906 31.648438 -8.082031 30.546875 -7.09375 C 29.816406 -6.414062 28.929688 -5.929688 27.890625 -5.640625 C 26.847656 -5.347656 25.835938 -5.15625 24.859375 -5.0625 C 23.878906 -4.976562 23.113281 -4.921875 22.5625 -4.890625 C 22.269531 -4.867188 21.8125 -4.859375 21.1875 -4.859375 C 20.5625 -4.859375 19.894531 -4.847656 19.1875 -4.828125 C 18.488281 -4.816406 17.832031 -4.8125 17.21875 -4.8125 C 16.601562 -4.8125 16.164062 -4.8125 15.90625 -4.8125 C 15.226562 -4.8125 14.773438 -4.703125 14.546875 -4.484375 C 14.328125 -4.265625 14.191406 -3.878906 14.140625 -3.328125 C 14.085938 -2.992188 14.054688 -2.546875 14.046875 -1.984375 C 14.035156 -1.421875 14.039062 -0.914062 14.0625 -0.46875 C 14.0625 -0.15625 13.90625 0 13.59375 0 L 1.53125 0 C 1.21875 0 1.0625 -0.15625 1.0625 -0.46875 C 1.0625 -0.46875 1.070312 -0.78125 1.09375 -1.40625 C 1.125 -2.03125 1.148438 -2.800781 1.171875 -3.71875 C 1.203125 -4.632812 1.222656 -5.535156 1.234375 -6.421875 C 1.242188 -7.304688 1.25 -8.039062 1.25 -8.625 C 1.28125 -10.8125 1.273438 -13.007812 1.234375 -15.21875 C 1.191406 -17.425781 1.160156 -19.640625 1.140625 -21.859375 C 1.140625 -22.722656 1.140625 -23.597656 1.140625 -24.484375 C 1.140625 -24.585938 1.175781 -24.640625 1.25 -24.640625 L 26.125 -24.640625 C 26.832031 -24.640625 27.570312 -24.484375 28.34375 -24.171875 C 29.113281 -23.859375 29.816406 -23.484375 30.453125 -23.046875 C 31.097656 -22.617188 31.578125 -22.234375 31.890625 -21.890625 C 33.015625 -20.640625 33.707031 -19.15625 33.96875 -17.4375 Z M 20.609375 -12.5 C 20.710938 -12.5 20.898438 -12.523438 21.171875 -12.578125 C 21.441406 -12.628906 21.691406 -12.742188 21.921875 -12.921875 C 22.160156 -13.109375 22.28125 -13.394531 22.28125 -13.78125 C 22.28125 -14.175781 22.160156 -14.460938 21.921875 -14.640625 C 21.691406 -14.828125 21.445312 -14.953125 21.1875 -15.015625 C 20.925781 -15.085938 20.742188 -15.125 20.640625 -15.125 C 20.460938 -15.125 20.132812 -15.128906 19.65625 -15.140625 C 19.1875 -15.148438 18.6875 -15.160156 18.15625 -15.171875 C 17.625 -15.191406 17.128906 -15.203125 16.671875 -15.203125 C 16.210938 -15.203125 15.890625 -15.203125 15.703125 -15.203125 C 15.597656 -15.203125 15.414062 -15.160156 15.15625 -15.078125 C 14.894531 -15.003906 14.660156 -14.875 14.453125 -14.6875 C 14.242188 -14.507812 14.140625 -14.257812 14.140625 -13.9375 C 14.140625 -13.445312 14.28125 -13.085938 14.5625 -12.859375 C 14.851562 -12.640625 15.078125 -12.53125 15.234375 -12.53125 C 15.472656 -12.507812 15.847656 -12.488281 16.359375 -12.46875 C 16.867188 -12.457031 17.414062 -12.453125 18 -12.453125 C 18.582031 -12.453125 19.113281 -12.453125 19.59375 -12.453125 C 20.082031 -12.453125 20.421875 -12.46875 20.609375 -12.5 Z M 20.609375 -12.5 "/></g></g></g><g fill="#010e9b" fill-opacity="1"><g transform="translate(140.72932, 31.009171)"><g><path d="M 32.515625 -2.15625 C 32.722656 -1.582031 32.929688 -1.007812 33.140625 -0.4375 C 33.191406 -0.332031 33.179688 -0.234375 33.109375 -0.140625 C 33.046875 -0.046875 32.960938 0 32.859375 0 L 18.71875 0 C 18.539062 0 18.4375 -0.101562 18.40625 -0.3125 C 18.40625 -0.363281 18.382812 -0.632812 18.34375 -1.125 C 18.3125 -1.625 18.253906 -2.175781 18.171875 -2.78125 C 18.117188 -3.175781 18.070312 -3.5625 18.03125 -3.9375 C 18 -4.3125 17.957031 -4.644531 17.90625 -4.9375 C 17.820312 -5.300781 17.617188 -5.566406 17.296875 -5.734375 C 16.972656 -5.910156 16.613281 -6 16.21875 -6 C 15.851562 -6 15.503906 -5.945312 15.171875 -5.84375 C 14.847656 -5.738281 14.632812 -5.410156 14.53125 -4.859375 C 14.457031 -4.441406 14.378906 -3.929688 14.296875 -3.328125 C 14.222656 -2.722656 14.160156 -2.140625 14.109375 -1.578125 C 14.054688 -1.023438 14.03125 -0.601562 14.03125 -0.3125 C 14 -0.101562 13.890625 0 13.703125 0 L 1.09375 0 C 0.988281 0 0.90625 -0.0351562 0.84375 -0.109375 C 0.78125 -0.191406 0.757812 -0.285156 0.78125 -0.390625 C 0.96875 -0.992188 1.21875 -1.851562 1.53125 -2.96875 C 1.84375 -4.09375 2.179688 -5.378906 2.546875 -6.828125 C 2.910156 -8.285156 3.285156 -9.796875 3.671875 -11.359375 C 4.066406 -12.921875 4.445312 -14.441406 4.8125 -15.921875 C 5.175781 -17.398438 5.488281 -18.722656 5.75 -19.890625 C 6.019531 -21.066406 6.21875 -21.984375 6.34375 -22.640625 C 6.445312 -23.210938 6.539062 -23.785156 6.625 -24.359375 C 6.644531 -24.546875 6.75 -24.640625 6.9375 -24.640625 L 26.125 -24.640625 C 26.3125 -24.640625 26.414062 -24.546875 26.4375 -24.359375 C 26.695312 -22.554688 27.050781 -20.78125 27.5 -19.03125 C 27.945312 -17.28125 28.414062 -15.53125 28.90625 -13.78125 C 29.476562 -11.851562 30.050781 -9.910156 30.625 -7.953125 C 31.207031 -5.992188 31.835938 -4.0625 32.515625 -2.15625 Z M 15.59375 -15.90625 C 15.332031 -14.382812 15.226562 -13.21875 15.28125 -12.40625 C 15.332031 -11.601562 15.734375 -11.253906 16.484375 -11.359375 C 16.960938 -11.441406 17.242188 -11.664062 17.328125 -12.03125 C 17.421875 -12.394531 17.4375 -12.796875 17.375 -13.234375 C 17.3125 -13.679688 17.265625 -14.0625 17.234375 -14.375 C 17.210938 -14.71875 17.160156 -15.132812 17.078125 -15.625 C 17.003906 -16.125 16.898438 -16.5625 16.765625 -16.9375 C 16.628906 -17.320312 16.457031 -17.515625 16.25 -17.515625 C 15.988281 -17.484375 15.832031 -17.320312 15.78125 -17.03125 C 15.726562 -16.75 15.664062 -16.375 15.59375 -15.90625 Z M 15.59375 -15.90625 "/></g></g></g></g></g></g><path stroke-linecap="round" transform="matrix(0.5591, -0.0791403, 0.0791403, 0.5591, 121.244673, 29.731801)" fill="none" stroke-linejoin="miter" d="M 4.501009 4.498368 L 21.743802 4.500727 " stroke="#ff8601" stroke-width="9" stroke-opacity="1" stroke-miterlimit="4"/><g clip-path="url(#449531ca09)"><path fill="#6bd662" d="M 214.597656 35.578125 L 202.082031 23.0625 C 201.328125 22.308594 201.328125 21.089844 202.082031 20.335938 L 204.804688 17.613281 C 205.554688 16.863281 206.773438 16.863281 207.527344 17.613281 L 215.960938 26.046875 L 234.019531 7.984375 C 234.773438 7.234375 235.992188 7.234375 236.746094 7.984375 L 239.46875 10.707031 C 240.21875 11.460938 240.21875 12.679688 239.46875 13.433594 L 217.320312 35.578125 C 216.570312 36.332031 215.351562 36.332031 214.597656 35.578125 Z M 214.597656 35.578125 " fill-opacity="1" fill-rule="nonzero"/></g></g></g><g transform="matrix(1, 0, 0, 1, 132, 134)"><g clip-path="url(#32567945c9)"><g clip-path="url(#dcc0fbf367)"><g transform="matrix(1, 0, 0, 1, 5, 24)"><g clip-path="url(#0f6b86cc40)"><g clip-path="url(#f781410559)"><path fill="#ffe538" d="M 0.976562 0.707031 L 32.558594 0.707031 L 32.558594 21.019531 L 0.976562 21.019531 Z M 0.976562 0.707031 " fill-opacity="1" fill-rule="nonzero"/></g></g></g></g><g clip-path="url(#1bd6fbbe70)"><g transform="matrix(1, 0, 0, 1, 0.000000000000028422, 0)"><g clip-path="url(#a3314fbf62)"><g fill="#010e9b" fill-opacity="1"><g transform="translate(0.03353, 48.98845)"><g><path d="M 53.03125 -16.5625 C 53.03125 -16.1875 52.976562 -15.4375 52.875 -14.3125 C 52.769531 -13.195312 52.578125 -12.050781 52.296875 -10.875 C 52.015625 -9.851562 51.65625 -8.84375 51.21875 -7.84375 C 50.789062 -6.851562 50.050781 -5.804688 49 -4.703125 C 47.894531 -3.609375 46.222656 -2.550781 43.984375 -1.53125 C 41.742188 -0.507812 38.8125 0 35.1875 0 L 2.4375 0 C 2.03125 0 1.847656 -0.203125 1.890625 -0.609375 C 1.972656 -0.929688 2.023438 -1.679688 2.046875 -2.859375 C 2.066406 -4.046875 2.078125 -5.398438 2.078125 -6.921875 C 2.078125 -8.453125 2.078125 -9.921875 2.078125 -11.328125 C 2.078125 -12.734375 2.054688 -13.84375 2.015625 -14.65625 C 1.972656 -16.445312 1.910156 -18.238281 1.828125 -20.03125 C 1.742188 -21.832031 1.6875 -23.628906 1.65625 -25.421875 L 1.65625 -35.921875 C 1.6875 -36.578125 1.722656 -37.25 1.765625 -37.9375 C 1.765625 -38.257812 1.929688 -38.421875 2.265625 -38.421875 L 36.109375 -38.421875 C 36.109375 -38.421875 36.117188 -38.421875 36.140625 -38.421875 C 36.160156 -38.421875 36.171875 -38.421875 36.171875 -38.421875 C 37.023438 -38.304688 38.0625 -38.144531 39.28125 -37.9375 C 40.5 -37.738281 41.789062 -37.382812 43.15625 -36.875 C 44.519531 -36.363281 45.835938 -35.640625 47.109375 -34.703125 C 48.410156 -33.765625 49.425781 -32.679688 50.15625 -31.453125 C 50.882812 -30.234375 51.429688 -29.015625 51.796875 -27.796875 C 52.171875 -26.578125 52.441406 -25.539062 52.609375 -24.6875 C 52.722656 -23.988281 52.820312 -23.28125 52.90625 -22.5625 C 52.988281 -21.851562 53.03125 -21.15625 53.03125 -20.46875 C 53.03125 -20.0625 53.03125 -19.46875 53.03125 -18.6875 C 53.03125 -17.914062 53.03125 -17.207031 53.03125 -16.5625 Z M 20.46875 -17.171875 C 20.707031 -17.210938 21.316406 -17.222656 22.296875 -17.203125 C 23.273438 -17.179688 24.425781 -17.179688 25.75 -17.203125 C 27.070312 -17.222656 28.40625 -17.269531 29.75 -17.34375 C 31.09375 -17.425781 32.253906 -17.59375 33.234375 -17.84375 C 33.929688 -17.957031 34.359375 -18.207031 34.515625 -18.59375 C 34.679688 -18.988281 34.734375 -19.367188 34.671875 -19.734375 C 34.609375 -20.097656 34.554688 -20.300781 34.515625 -20.34375 C 34.148438 -20.832031 33.703125 -21.128906 33.171875 -21.234375 C 32.640625 -21.335938 32.09375 -21.425781 31.53125 -21.5 C 31.28125 -21.539062 30.664062 -21.5625 29.6875 -21.5625 C 28.707031 -21.5625 27.609375 -21.5625 26.390625 -21.5625 C 25.171875 -21.5625 24.019531 -21.5625 22.9375 -21.5625 C 21.863281 -21.5625 21.101562 -21.539062 20.65625 -21.5 L 20.59375 -21.5 C 20.300781 -21.539062 20.070312 -21.519531 19.90625 -21.4375 C 19.75 -21.363281 19.671875 -21.117188 19.671875 -20.703125 L 19.671875 -18.140625 C 19.671875 -17.859375 19.738281 -17.613281 19.875 -17.40625 C 20.019531 -17.207031 20.21875 -17.128906 20.46875 -17.171875 Z M 20.46875 -17.171875 "/></g></g></g></g></g></g><g clip-path="url(#fee6f9097d)"><path fill="#6bd662" d="M 8.035156 67.925781 L 1.328125 61.21875 C 0.925781 60.816406 0.925781 60.164062 1.328125 59.761719 L 2.785156 58.300781 C 3.1875 57.898438 3.84375 57.898438 4.246094 58.300781 L 8.765625 62.820312 L 18.441406 53.140625 C 18.84375 52.738281 19.5 52.738281 19.902344 53.140625 L 21.359375 54.601562 C 21.761719 55.003906 21.761719 55.65625 21.359375 56.058594 L 9.492188 67.925781 C 9.089844 68.328125 8.4375 68.328125 8.035156 67.925781 Z M 8.035156 67.925781 " fill-opacity="1" fill-rule="nonzero"/></g><g clip-path="url(#82a331c404)"><g transform="matrix(1, 0, 0, 1, 22, 29)"><g clip-path="url(#55a33ab920)"><g fill="#ff8601" fill-opacity="1"><g transform="translate(1.525753, 40.161785)"><g><path d="M 44.015625 -31.375 C 44.015625 -31.375 44.015625 -31.335938 44.015625 -31.265625 C 44.015625 -31.203125 44.015625 -31.171875 44.015625 -31.171875 C 44.015625 -31.140625 44.003906 -30.785156 43.984375 -30.109375 C 43.972656 -29.441406 43.957031 -28.671875 43.9375 -27.796875 C 43.914062 -26.921875 43.90625 -26.203125 43.90625 -25.640625 C 43.90625 -25.335938 43.914062 -24.820312 43.9375 -24.09375 C 43.957031 -23.375 43.972656 -22.710938 43.984375 -22.109375 C 44.003906 -21.503906 44.015625 -21.203125 44.015625 -21.203125 C 44.015625 -21.003906 43.914062 -20.90625 43.71875 -20.90625 C 42 -20.90625 40.273438 -20.910156 38.546875 -20.921875 C 36.816406 -20.941406 35.082031 -20.96875 33.34375 -21 C 32.9375 -21 32.320312 -21.023438 31.5 -21.078125 C 30.675781 -21.128906 29.800781 -21.171875 28.875 -21.203125 C 27.957031 -21.234375 27.128906 -21.253906 26.390625 -21.265625 C 25.648438 -21.285156 25.144531 -21.265625 24.875 -21.203125 C 24.40625 -21.097656 24.0625 -20.859375 23.84375 -20.484375 C 23.625 -20.117188 23.488281 -19.734375 23.4375 -19.328125 C 23.382812 -18.929688 23.378906 -18.664062 23.421875 -18.53125 C 23.515625 -17.757812 23.785156 -17.351562 24.234375 -17.3125 C 24.691406 -17.28125 25.289062 -17.21875 26.03125 -17.125 C 26.800781 -17.019531 27.800781 -16.992188 29.03125 -17.046875 C 30.257812 -17.097656 31.257812 -17.085938 32.03125 -17.015625 C 33.039062 -16.984375 33.910156 -16.992188 34.640625 -17.046875 C 35.378906 -17.097656 36.335938 -17.109375 37.515625 -17.078125 C 38.453125 -17.078125 39.472656 -17.078125 40.578125 -17.078125 C 41.691406 -17.078125 42.738281 -17.109375 43.71875 -17.171875 C 43.914062 -17.203125 44.015625 -17.117188 44.015625 -16.921875 C 44.015625 -16.921875 43.988281 -16.59375 43.9375 -15.9375 C 43.882812 -15.28125 43.859375 -14.566406 43.859375 -13.796875 C 43.859375 -13.390625 43.863281 -12.804688 43.875 -12.046875 C 43.894531 -11.296875 43.921875 -10.617188 43.953125 -10.015625 C 43.992188 -9.410156 44.015625 -9.109375 44.015625 -9.109375 C 44.015625 -8.910156 43.914062 -8.8125 43.71875 -8.8125 C 43.113281 -8.8125 42.5 -8.8125 41.875 -8.8125 C 41.25 -8.8125 40.617188 -8.8125 39.984375 -8.8125 C 39.578125 -8.84375 38.863281 -8.875 37.84375 -8.90625 C 36.820312 -8.945312 35.628906 -8.972656 34.265625 -8.984375 C 32.910156 -9.003906 31.535156 -8.976562 30.140625 -8.90625 C 28.742188 -8.84375 27.476562 -8.710938 26.34375 -8.515625 C 25.257812 -8.273438 24.523438 -8.007812 24.140625 -7.71875 C 23.753906 -7.4375 23.515625 -7.113281 23.421875 -6.75 C 23.117188 -5.875 23 -4.835938 23.0625 -3.640625 C 23.132812 -2.453125 23.203125 -1.335938 23.265625 -0.296875 C 23.265625 -0.0976562 23.164062 0 22.96875 0 L 1.8125 0 C 1.613281 0 1.515625 -0.0976562 1.515625 -0.296875 C 1.515625 -0.296875 1.503906 -0.539062 1.484375 -1.03125 C 1.460938 -1.519531 1.441406 -2.148438 1.421875 -2.921875 C 1.410156 -3.691406 1.394531 -4.476562 1.375 -5.28125 C 1.363281 -6.09375 1.359375 -6.816406 1.359375 -7.453125 C 1.359375 -7.953125 1.363281 -8.695312 1.375 -9.6875 C 1.394531 -10.6875 1.421875 -11.796875 1.453125 -13.015625 C 1.492188 -14.242188 1.519531 -15.46875 1.53125 -16.6875 C 1.550781 -17.914062 1.5625 -19.03125 1.5625 -20.03125 C 1.5625 -21.039062 1.546875 -21.816406 1.515625 -22.359375 C 1.472656 -23.128906 1.476562 -24.007812 1.53125 -25 C 1.582031 -25.988281 1.578125 -26.867188 1.515625 -27.640625 L 1.515625 -31.375 C 1.515625 -31.570312 1.613281 -31.671875 1.8125 -31.671875 L 43.71875 -31.671875 C 43.914062 -31.671875 44.015625 -31.570312 44.015625 -31.375 Z M 44.015625 -31.375 "/></g></g></g></g></g></g></g></g><path fill="#ff8601" d="M 12 161.046875 L 18 161.046875 C 18.199219 161.046875 18.390625 161.085938 18.574219 161.160156 C 18.757812 161.238281 18.921875 161.347656 19.0625 161.488281 C 19.203125 161.628906 19.308594 161.789062 19.386719 161.972656 C 19.460938 162.15625 19.5 162.347656 19.5 162.546875 C 19.5 162.746094 19.460938 162.9375 19.386719 163.121094 C 19.308594 163.304688 19.203125 163.46875 19.0625 163.609375 C 18.921875 163.75 18.757812 163.855469 18.574219 163.933594 C 18.390625 164.007812 18.199219 164.046875 18 164.046875 L 12 164.046875 C 11.800781 164.046875 11.609375 164.007812 11.425781 163.933594 C 11.242188 163.855469 11.078125 163.75 10.9375 163.609375 C 10.796875 163.46875 10.691406 163.304688 10.613281 163.121094 C 10.539062 162.9375 10.5 162.746094 10.5 162.546875 C 10.5 162.347656 10.539062 162.15625 10.613281 161.972656 C 10.691406 161.789062 10.796875 161.628906 10.9375 161.488281 C 11.078125 161.347656 11.242188 161.238281 11.425781 161.160156 C 11.609375 161.085938 11.800781 161.046875 12 161.046875 Z M 24 161.046875 L 30 161.046875 C 30.199219 161.046875 30.390625 161.085938 30.574219 161.160156 C 30.757812 161.238281 30.921875 161.347656 31.0625 161.488281 C 31.203125 161.628906 31.308594 161.789062 31.386719 161.972656 C 31.460938 162.15625 31.5 162.347656 31.5 162.546875 C 31.5 162.746094 31.460938 162.9375 31.386719 163.121094 C 31.308594 163.304688 31.203125 163.46875 31.0625 163.609375 C 30.921875 163.75 30.757812 163.855469 30.574219 163.933594 C 30.390625 164.007812 30.199219 164.046875 30 164.046875 L 24 164.046875 C 23.800781 164.046875 23.609375 164.007812 23.425781 163.933594 C 23.242188 163.855469 23.078125 163.75 22.9375 163.609375 C 22.796875 163.46875 22.691406 163.304688 22.613281 163.121094 C 22.539062 162.9375 22.5 162.746094 22.5 162.546875 C 22.5 162.347656 22.539062 162.15625 22.613281 161.972656 C 22.691406 161.789062 22.796875 161.628906 22.9375 161.488281 C 23.078125 161.347656 23.242188 161.238281 23.425781 161.160156 C 23.609375 161.085938 23.800781 161.046875 24 161.046875 Z M 36 161.046875 L 42 161.046875 C 42.199219 161.046875 42.390625 161.085938 42.574219 161.160156 C 42.757812 161.238281 42.921875 161.347656 43.0625 161.488281 C 43.203125 161.628906 43.308594 161.789062 43.386719 161.972656 C 43.460938 162.15625 43.5 162.347656 43.5 162.546875 C 43.5 162.746094 43.460938 162.9375 43.386719 163.121094 C 43.308594 163.304688 43.203125 163.46875 43.0625 163.609375 C 42.921875 163.75 42.757812 163.855469 42.574219 163.933594 C 42.390625 164.007812 42.199219 164.046875 42 164.046875 L 36 164.046875 C 35.800781 164.046875 35.609375 164.007812 35.425781 163.933594 C 35.242188 163.855469 35.078125 163.75 34.9375 163.609375 C 34.796875 163.46875 34.691406 163.304688 34.613281 163.121094 C 34.539062 162.9375 34.5 162.746094 34.5 162.546875 C 34.5 162.347656 34.539062 162.15625 34.613281 161.972656 C 34.691406 161.789062 34.796875 161.628906 34.9375 161.488281 C 35.078125 161.347656 35.242188 161.238281 35.425781 161.160156 C 35.609375 161.085938 35.800781 161.046875 36 161.046875 Z M 48 161.046875 L 54 161.046875 C 54.199219 161.046875 54.390625 161.085938 54.574219 161.160156 C 54.757812 161.238281 54.921875 161.347656 55.0625 161.488281 C 55.203125 161.628906 55.308594 161.789062 55.386719 161.972656 C 55.460938 162.15625 55.5 162.347656 55.5 162.546875 C 55.5 162.746094 55.460938 162.9375 55.386719 163.121094 C 55.308594 163.304688 55.203125 163.46875 55.0625 163.609375 C 54.921875 163.75 54.757812 163.855469 54.574219 163.933594 C 54.390625 164.007812 54.199219 164.046875 54 164.046875 L 48 164.046875 C 47.800781 164.046875 47.609375 164.007812 47.425781 163.933594 C 47.242188 163.855469 47.078125 163.75 46.9375 163.609375 C 46.796875 163.46875 46.691406 163.304688 46.613281 163.121094 C 46.539062 162.9375 46.5 162.746094 46.5 162.546875 C 46.5 162.347656 46.539062 162.15625 46.613281 161.972656 C 46.691406 161.789062 46.796875 161.628906 46.9375 161.488281 C 47.078125 161.347656 47.242188 161.238281 47.425781 161.160156 C 47.609375 161.085938 47.800781 161.046875 48 161.046875 Z M 59.921875 161.015625 C 61.769531 160.898438 63.546875 160.480469 65.246094 159.769531 C 65.429688 159.691406 65.621094 159.652344 65.820312 159.652344 C 66.019531 159.648438 66.210938 159.6875 66.394531 159.761719 C 66.578125 159.835938 66.742188 159.945312 66.882812 160.085938 C 67.023438 160.226562 67.132812 160.386719 67.210938 160.570312 C 67.285156 160.753906 67.324219 160.945312 67.328125 161.144531 C 67.328125 161.34375 67.289062 161.535156 67.214844 161.71875 C 67.140625 161.902344 67.03125 162.066406 66.890625 162.207031 C 66.753906 162.347656 66.589844 162.457031 66.40625 162.535156 C 64.394531 163.378906 62.296875 163.871094 60.109375 164.007812 C 59.914062 164.019531 59.71875 163.996094 59.53125 163.929688 C 59.34375 163.867188 59.175781 163.769531 59.023438 163.636719 C 58.875 163.503906 58.757812 163.351562 58.667969 163.171875 C 58.582031 162.992188 58.53125 162.804688 58.519531 162.605469 C 58.507812 162.40625 58.53125 162.214844 58.597656 162.027344 C 58.660156 161.835938 58.757812 161.667969 58.890625 161.519531 C 59.023438 161.371094 59.175781 161.25 59.355469 161.164062 C 59.535156 161.078125 59.722656 161.027344 59.921875 161.015625 Z M 69.898438 156.8125 C 71.28125 155.570312 72.421875 154.132812 73.316406 152.511719 C 73.414062 152.335938 73.539062 152.1875 73.695312 152.0625 C 73.851562 151.9375 74.023438 151.847656 74.214844 151.792969 C 74.40625 151.738281 74.601562 151.722656 74.796875 151.746094 C 74.996094 151.765625 75.183594 151.828125 75.355469 151.921875 C 75.53125 152.019531 75.679688 152.144531 75.804688 152.300781 C 75.925781 152.457031 76.015625 152.628906 76.070312 152.820312 C 76.128906 153.011719 76.144531 153.207031 76.121094 153.402344 C 76.097656 153.601562 76.039062 153.785156 75.945312 153.960938 C 74.886719 155.878906 73.539062 157.574219 71.90625 159.042969 C 71.757812 159.175781 71.589844 159.277344 71.402344 159.34375 C 71.214844 159.410156 71.023438 159.4375 70.824219 159.425781 C 70.625 159.414062 70.4375 159.367188 70.257812 159.28125 C 70.078125 159.195312 69.921875 159.078125 69.789062 158.933594 C 69.65625 158.785156 69.554688 158.617188 69.488281 158.429688 C 69.421875 158.242188 69.394531 158.046875 69.40625 157.847656 C 69.414062 157.652344 69.464844 157.460938 69.550781 157.28125 C 69.632812 157.101562 69.75 156.945312 69.898438 156.8125 Z M 75.128906 147.328125 C 75.285156 146.410156 75.363281 145.484375 75.363281 144.546875 L 75.363281 141.578125 C 75.363281 141.378906 75.402344 141.1875 75.476562 141.003906 C 75.554688 140.820312 75.660156 140.660156 75.800781 140.519531 C 75.941406 140.378906 76.105469 140.269531 76.289062 140.191406 C 76.472656 140.117188 76.664062 140.078125 76.863281 140.078125 C 77.0625 140.078125 77.253906 140.117188 77.4375 140.191406 C 77.621094 140.269531 77.78125 140.378906 77.921875 140.519531 C 78.0625 140.660156 78.171875 140.820312 78.25 141.003906 C 78.324219 141.1875 78.363281 141.378906 78.363281 141.578125 L 78.363281 144.546875 C 78.363281 145.652344 78.269531 146.746094 78.085938 147.828125 C 78.054688 148.027344 77.984375 148.207031 77.878906 148.375 C 77.773438 148.546875 77.640625 148.6875 77.476562 148.800781 C 77.316406 148.917969 77.136719 148.996094 76.941406 149.042969 C 76.75 149.085938 76.554688 149.089844 76.359375 149.058594 C 76.160156 149.023438 75.980469 148.953125 75.8125 148.847656 C 75.640625 148.742188 75.5 148.609375 75.386719 148.445312 C 75.269531 148.285156 75.191406 148.105469 75.144531 147.914062 C 75.101562 147.71875 75.097656 147.523438 75.128906 147.328125 Z M 75.65625 135.324219 C 76.03125 133.160156 76.757812 131.121094 77.828125 129.199219 C 77.925781 129.027344 78.054688 128.878906 78.210938 128.753906 C 78.367188 128.632812 78.539062 128.542969 78.730469 128.488281 C 78.921875 128.433594 79.117188 128.417969 79.3125 128.441406 C 79.511719 128.464844 79.699219 128.527344 79.871094 128.625 C 80.042969 128.71875 80.191406 128.847656 80.316406 129.003906 C 80.441406 129.160156 80.527344 129.332031 80.582031 129.523438 C 80.636719 129.714844 80.652344 129.910156 80.628906 130.109375 C 80.605469 130.304688 80.546875 130.492188 80.449219 130.664062 C 79.542969 132.285156 78.929688 134.011719 78.609375 135.839844 C 78.574219 136.035156 78.503906 136.21875 78.398438 136.386719 C 78.292969 136.554688 78.15625 136.695312 77.996094 136.808594 C 77.832031 136.921875 77.652344 137 77.457031 137.042969 C 77.265625 137.089844 77.070312 137.09375 76.875 137.058594 C 76.679688 137.023438 76.496094 136.953125 76.328125 136.847656 C 76.160156 136.742188 76.019531 136.605469 75.90625 136.441406 C 75.789062 136.28125 75.710938 136.101562 75.667969 135.90625 C 75.625 135.714844 75.621094 135.519531 75.65625 135.324219 Z M 81.894531 124.140625 C 83.539062 122.671875 85.378906 121.519531 87.410156 120.675781 C 87.59375 120.601562 87.785156 120.5625 87.984375 120.5625 C 88.183594 120.5625 88.371094 120.601562 88.558594 120.675781 C 88.742188 120.753906 88.902344 120.863281 89.042969 121.003906 C 89.183594 121.144531 89.292969 121.304688 89.367188 121.488281 C 89.445312 121.671875 89.484375 121.863281 89.484375 122.0625 C 89.484375 122.261719 89.445312 122.453125 89.367188 122.636719 C 89.292969 122.820312 89.183594 122.984375 89.042969 123.125 C 88.902344 123.265625 88.738281 123.371094 88.554688 123.449219 C 86.839844 124.160156 85.28125 125.136719 83.890625 126.378906 C 83.742188 126.511719 83.570312 126.609375 83.382812 126.675781 C 83.195312 126.742188 83.003906 126.769531 82.804688 126.757812 C 82.605469 126.746094 82.417969 126.695312 82.238281 126.609375 C 82.058594 126.523438 81.902344 126.40625 81.769531 126.257812 C 81.636719 126.109375 81.539062 125.941406 81.472656 125.753906 C 81.410156 125.566406 81.382812 125.371094 81.394531 125.171875 C 81.40625 124.976562 81.453125 124.785156 81.539062 124.605469 C 81.625 124.429688 81.746094 124.273438 81.894531 124.140625 Z M 93.714844 119.234375 C 94.09375 119.210938 94.476562 119.203125 94.863281 119.203125 L 99.816406 119.203125 C 100.015625 119.203125 100.207031 119.238281 100.390625 119.316406 C 100.574219 119.390625 100.738281 119.5 100.878906 119.640625 C 101.019531 119.78125 101.125 119.945312 101.203125 120.128906 C 101.277344 120.3125 101.316406 120.503906 101.316406 120.703125 C 101.316406 120.902344 101.277344 121.089844 101.203125 121.277344 C 101.125 121.460938 101.019531 121.621094 100.878906 121.761719 C 100.738281 121.902344 100.574219 122.011719 100.390625 122.085938 C 100.207031 122.164062 100.015625 122.203125 99.816406 122.203125 L 94.863281 122.203125 C 94.535156 122.203125 94.210938 122.210938 93.886719 122.230469 C 93.6875 122.242188 93.496094 122.214844 93.308594 122.148438 C 93.121094 122.082031 92.953125 121.984375 92.804688 121.851562 C 92.65625 121.71875 92.539062 121.566406 92.449219 121.386719 C 92.363281 121.207031 92.316406 121.019531 92.304688 120.820312 C 92.292969 120.621094 92.320312 120.425781 92.382812 120.238281 C 92.449219 120.050781 92.546875 119.882812 92.679688 119.734375 C 92.8125 119.585938 92.96875 119.46875 93.148438 119.382812 C 93.328125 119.296875 93.515625 119.246094 93.714844 119.234375 Z M 105.816406 119.203125 L 111.816406 119.203125 C 112.015625 119.203125 112.207031 119.238281 112.390625 119.316406 C 112.574219 119.390625 112.738281 119.5 112.878906 119.640625 C 113.019531 119.78125 113.125 119.945312 113.203125 120.128906 C 113.277344 120.3125 113.316406 120.503906 113.316406 120.703125 C 113.316406 120.902344 113.277344 121.089844 113.203125 121.277344 C 113.125 121.460938 113.019531 121.621094 112.878906 121.761719 C 112.738281 121.902344 112.574219 122.011719 112.390625 122.085938 C 112.207031 122.164062 112.015625 122.203125 111.816406 122.203125 L 105.816406 122.203125 C 105.617188 122.203125 105.425781 122.164062 105.242188 122.085938 C 105.058594 122.011719 104.898438 121.902344 104.757812 121.761719 C 104.617188 121.621094 104.507812 121.460938 104.429688 121.277344 C 104.355469 121.089844 104.316406 120.902344 104.316406 120.703125 C 104.316406 120.503906 104.355469 120.3125 104.429688 120.128906 C 104.507812 119.945312 104.617188 119.78125 104.757812 119.640625 C 104.898438 119.5 105.058594 119.390625 105.242188 119.316406 C 105.425781 119.238281 105.617188 119.203125 105.816406 119.203125 Z M 117.816406 119.203125 L 123.816406 119.203125 C 124.015625 119.203125 124.207031 119.238281 124.390625 119.316406 C 124.574219 119.390625 124.738281 119.5 124.878906 119.640625 C 125.019531 119.78125 125.125 119.945312 125.203125 120.128906 C 125.277344 120.3125 125.316406 120.503906 125.316406 120.703125 C 125.316406 120.902344 125.277344 121.089844 125.203125 121.277344 C 125.125 121.460938 125.019531 121.621094 124.878906 121.761719 C 124.738281 121.902344 124.574219 122.011719 124.390625 122.085938 C 124.207031 122.164062 124.015625 122.203125 123.816406 122.203125 L 117.816406 122.203125 C 117.617188 122.203125 117.425781 122.164062 117.242188 122.085938 C 117.058594 122.011719 116.898438 121.902344 116.757812 121.761719 C 116.617188 121.621094 116.507812 121.460938 116.429688 121.277344 C 116.355469 121.089844 116.316406 120.902344 116.316406 120.703125 C 116.316406 120.503906 116.355469 120.3125 116.429688 120.128906 C 116.507812 119.945312 116.617188 119.78125 116.757812 119.640625 C 116.898438 119.5 117.058594 119.390625 117.242188 119.316406 C 117.425781 119.238281 117.617188 119.203125 117.816406 119.203125 Z M 129.816406 119.203125 L 135.816406 119.203125 C 136.015625 119.203125 136.207031 119.238281 136.390625 119.316406 C 136.574219 119.390625 136.738281 119.5 136.878906 119.640625 C 137.019531 119.78125 137.125 119.945312 137.203125 120.128906 C 137.277344 120.3125 137.316406 120.503906 137.316406 120.703125 C 137.316406 120.902344 137.277344 121.089844 137.203125 121.277344 C 137.125 121.460938 137.019531 121.621094 136.878906 121.761719 C 136.738281 121.902344 136.574219 122.011719 136.390625 122.085938 C 136.207031 122.164062 136.015625 122.203125 135.816406 122.203125 L 129.816406 122.203125 C 129.617188 122.203125 129.425781 122.164062 129.242188 122.085938 C 129.058594 122.011719 128.898438 121.902344 128.757812 121.761719 C 128.617188 121.621094 128.507812 121.460938 128.429688 121.277344 C 128.355469 121.089844 128.316406 120.902344 128.316406 120.703125 C 128.316406 120.503906 128.355469 120.3125 128.429688 120.128906 C 128.507812 119.945312 128.617188 119.78125 128.757812 119.640625 C 128.898438 119.5 129.058594 119.390625 129.242188 119.316406 C 129.425781 119.238281 129.617188 119.203125 129.816406 119.203125 Z M 141.816406 119.203125 L 147.816406 119.203125 C 148.015625 119.203125 148.207031 119.238281 148.390625 119.316406 C 148.574219 119.390625 148.738281 119.5 148.878906 119.640625 C 149.019531 119.78125 149.125 119.945312 149.203125 120.128906 C 149.277344 120.3125 149.316406 120.503906 149.316406 120.703125 C 149.316406 120.902344 149.277344 121.089844 149.203125 121.277344 C 149.125 121.460938 149.019531 121.621094 148.878906 121.761719 C 148.738281 121.902344 148.574219 122.011719 148.390625 122.085938 C 148.207031 122.164062 148.015625 122.203125 147.816406 122.203125 L 141.816406 122.203125 C 141.617188 122.203125 141.425781 122.164062 141.242188 122.085938 C 141.058594 122.011719 140.898438 121.902344 140.757812 121.761719 C 140.617188 121.621094 140.507812 121.460938 140.429688 121.277344 C 140.355469 121.089844 140.316406 120.902344 140.316406 120.703125 C 140.316406 120.503906 140.355469 120.3125 140.429688 120.128906 C 140.507812 119.945312 140.617188 119.78125 140.757812 119.640625 C 140.898438 119.5 141.058594 119.390625 141.242188 119.316406 C 141.425781 119.238281 141.617188 119.203125 141.816406 119.203125 Z M 153.816406 119.203125 L 159.816406 119.203125 C 160.015625 119.203125 160.207031 119.238281 160.390625 119.316406 C 160.574219 119.390625 160.738281 119.5 160.878906 119.640625 C 161.019531 119.78125 161.125 119.945312 161.203125 120.128906 C 161.277344 120.3125 161.316406 120.503906 161.316406 120.703125 C 161.316406 120.902344 161.277344 121.089844 161.203125 121.277344 C 161.125 121.460938 161.019531 121.621094 160.878906 121.761719 C 160.738281 121.902344 160.574219 122.011719 160.390625 122.085938 C 160.207031 122.164062 160.015625 122.203125 159.816406 122.203125 L 153.816406 122.203125 C 153.617188 122.203125 153.425781 122.164062 153.242188 122.085938 C 153.058594 122.011719 152.898438 121.902344 152.757812 121.761719 C 152.617188 121.621094 152.507812 121.460938 152.429688 121.277344 C 152.355469 121.089844 152.316406 120.902344 152.316406 120.703125 C 152.316406 120.503906 152.355469 120.3125 152.429688 120.128906 C 152.507812 119.945312 152.617188 119.78125 152.757812 119.640625 C 152.898438 119.5 153.058594 119.390625 153.242188 119.316406 C 153.425781 119.238281 153.617188 119.203125 153.816406 119.203125 Z M 165.816406 119.203125 L 171.816406 119.203125 C 172.015625 119.203125 172.207031 119.238281 172.390625 119.316406 C 172.574219 119.390625 172.738281 119.5 172.878906 119.640625 C 173.019531 119.78125 173.125 119.945312 173.203125 120.128906 C 173.277344 120.3125 173.316406 120.503906 173.316406 120.703125 C 173.316406 120.902344 173.277344 121.089844 173.203125 121.277344 C 173.125 121.460938 173.019531 121.621094 172.878906 121.761719 C 172.738281 121.902344 172.574219 122.011719 172.390625 122.085938 C 172.207031 122.164062 172.015625 122.203125 171.816406 122.203125 L 165.816406 122.203125 C 165.617188 122.203125 165.425781 122.164062 165.242188 122.085938 C 165.058594 122.011719 164.898438 121.902344 164.757812 121.761719 C 164.617188 121.621094 164.507812 121.460938 164.429688 121.277344 C 164.355469 121.089844 164.316406 120.902344 164.316406 120.703125 C 164.316406 120.503906 164.355469 120.3125 164.429688 120.128906 C 164.507812 119.945312 164.617188 119.78125 164.757812 119.640625 C 164.898438 119.5 165.058594 119.390625 165.242188 119.316406 C 165.425781 119.238281 165.617188 119.203125 165.816406 119.203125 Z M 177.816406 119.203125 L 183.816406 119.203125 C 184.015625 119.203125 184.207031 119.238281 184.390625 119.316406 C 184.574219 119.390625 184.738281 119.5 184.878906 119.640625 C 185.019531 119.78125 185.125 119.945312 185.203125 120.128906 C 185.277344 120.3125 185.316406 120.503906 185.316406 120.703125 C 185.316406 120.902344 185.277344 121.089844 185.203125 121.277344 C 185.125 121.460938 185.019531 121.621094 184.878906 121.761719 C 184.738281 121.902344 184.574219 122.011719 184.390625 122.085938 C 184.207031 122.164062 184.015625 122.203125 183.816406 122.203125 L 177.816406 122.203125 C 177.617188 122.203125 177.425781 122.164062 177.242188 122.085938 C 177.058594 122.011719 176.898438 121.902344 176.757812 121.761719 C 176.617188 121.621094 176.507812 121.460938 176.429688 121.277344 C 176.355469 121.089844 176.316406 120.902344 176.316406 120.703125 C 176.316406 120.503906 176.355469 120.3125 176.429688 120.128906 C 176.507812 119.945312 176.617188 119.78125 176.757812 119.640625 C 176.898438 119.5 177.058594 119.390625 177.242188 119.316406 C 177.425781 119.238281 177.617188 119.203125 177.816406 119.203125 Z M 189.816406 119.203125 L 195.816406 119.203125 C 196.015625 119.203125 196.207031 119.238281 196.390625 119.316406 C 196.574219 119.390625 196.738281 119.5 196.878906 119.640625 C 197.019531 119.78125 197.125 119.945312 197.203125 120.128906 C 197.277344 120.3125 197.316406 120.503906 197.316406 120.703125 C 197.316406 120.902344 197.277344 121.089844 197.203125 121.277344 C 197.125 121.460938 197.019531 121.621094 196.878906 121.761719 C 196.738281 121.902344 196.574219 122.011719 196.390625 122.085938 C 196.207031 122.164062 196.015625 122.203125 195.816406 122.203125 L 189.816406 122.203125 C 189.617188 122.203125 189.425781 122.164062 189.242188 122.085938 C 189.058594 122.011719 188.898438 121.902344 188.757812 121.761719 C 188.617188 121.621094 188.507812 121.460938 188.429688 121.277344 C 188.355469 121.089844 188.316406 120.902344 188.316406 120.703125 C 188.316406 120.503906 188.355469 120.3125 188.429688 120.128906 C 188.507812 119.945312 188.617188 119.78125 188.757812 119.640625 C 188.898438 119.5 189.058594 119.390625 189.242188 119.316406 C 189.425781 119.238281 189.617188 119.203125 189.816406 119.203125 Z M 201.816406 119.203125 L 207.816406 119.203125 C 208.015625 119.203125 208.207031 119.238281 208.390625 119.316406 C 208.574219 119.390625 208.738281 119.5 208.878906 119.640625 C 209.019531 119.78125 209.125 119.945312 209.203125 120.128906 C 209.277344 120.3125 209.316406 120.503906 209.316406 120.703125 C 209.316406 120.902344 209.277344 121.089844 209.203125 121.277344 C 209.125 121.460938 209.019531 121.621094 208.878906 121.761719 C 208.738281 121.902344 208.574219 122.011719 208.390625 122.085938 C 208.207031 122.164062 208.015625 122.203125 207.816406 122.203125 L 201.816406 122.203125 C 201.617188 122.203125 201.425781 122.164062 201.242188 122.085938 C 201.058594 122.011719 200.898438 121.902344 200.757812 121.761719 C 200.617188 121.621094 200.507812 121.460938 200.429688 121.277344 C 200.355469 121.089844 200.316406 120.902344 200.316406 120.703125 C 200.316406 120.503906 200.355469 120.3125 200.429688 120.128906 C 200.507812 119.945312 200.617188 119.78125 200.757812 119.640625 C 200.898438 119.5 201.058594 119.390625 201.242188 119.316406 C 201.425781 119.238281 201.617188 119.203125 201.816406 119.203125 Z M 213.816406 119.203125 L 219.816406 119.203125 C 220.015625 119.203125 220.207031 119.238281 220.390625 119.316406 C 220.574219 119.390625 220.738281 119.5 220.878906 119.640625 C 221.019531 119.78125 221.125 119.945312 221.203125 120.128906 C 221.277344 120.3125 221.316406 120.503906 221.316406 120.703125 C 221.316406 120.902344 221.277344 121.089844 221.203125 121.277344 C 221.125 121.460938 221.019531 121.621094 220.878906 121.761719 C 220.738281 121.902344 220.574219 122.011719 220.390625 122.085938 C 220.207031 122.164062 220.015625 122.203125 219.816406 122.203125 L 213.816406 122.203125 C 213.617188 122.203125 213.425781 122.164062 213.242188 122.085938 C 213.058594 122.011719 212.898438 121.902344 212.757812 121.761719 C 212.617188 121.621094 212.507812 121.460938 212.429688 121.277344 C 212.355469 121.089844 212.316406 120.902344 212.316406 120.703125 C 212.316406 120.503906 212.355469 120.3125 212.429688 120.128906 C 212.507812 119.945312 212.617188 119.78125 212.757812 119.640625 C 212.898438 119.5 213.058594 119.390625 213.242188 119.316406 C 213.425781 119.238281 213.617188 119.203125 213.816406 119.203125 Z M 225.816406 119.203125 L 231.816406 119.203125 C 232.015625 119.203125 232.207031 119.238281 232.390625 119.316406 C 232.574219 119.390625 232.738281 119.5 232.878906 119.640625 C 233.019531 119.78125 233.125 119.945312 233.203125 120.128906 C 233.277344 120.3125 233.316406 120.503906 233.316406 120.703125 C 233.316406 120.902344 233.277344 121.089844 233.203125 121.277344 C 233.125 121.460938 233.019531 121.621094 232.878906 121.761719 C 232.738281 121.902344 232.574219 122.011719 232.390625 122.085938 C 232.207031 122.164062 232.015625 122.203125 231.816406 122.203125 L 225.816406 122.203125 C 225.617188 122.203125 225.425781 122.164062 225.242188 122.085938 C 225.058594 122.011719 224.898438 121.902344 224.757812 121.761719 C 224.617188 121.621094 224.507812 121.460938 224.429688 121.277344 C 224.355469 121.089844 224.316406 120.902344 224.316406 120.703125 C 224.316406 120.503906 224.355469 120.3125 224.429688 120.128906 C 224.507812 119.945312 224.617188 119.78125 224.757812 119.640625 C 224.898438 119.5 225.058594 119.390625 225.242188 119.316406 C 225.425781 119.238281 225.617188 119.203125 225.816406 119.203125 Z M 237.816406 119.203125 L 243.816406 119.203125 C 244.015625 119.203125 244.207031 119.238281 244.390625 119.316406 C 244.574219 119.390625 244.738281 119.5 244.878906 119.640625 C 245.019531 119.78125 245.125 119.945312 245.203125 120.128906 C 245.277344 120.3125 245.316406 120.503906 245.316406 120.703125 C 245.316406 120.902344 245.277344 121.089844 245.203125 121.277344 C 245.125 121.460938 245.019531 121.621094 244.878906 121.761719 C 244.738281 121.902344 244.574219 122.011719 244.390625 122.085938 C 244.207031 122.164062 244.015625 122.203125 243.816406 122.203125 L 237.816406 122.203125 C 237.617188 122.203125 237.425781 122.164062 237.242188 122.085938 C 237.058594 122.011719 236.898438 121.902344 236.757812 121.761719 C 236.617188 121.621094 236.507812 121.460938 236.429688 121.277344 C 236.355469 121.089844 236.316406 120.902344 236.316406 120.703125 C 236.316406 120.503906 236.355469 120.3125 236.429688 120.128906 C 236.507812 119.945312 236.617188 119.78125 236.757812 119.640625 C 236.898438 119.5 237.058594 119.390625 237.242188 119.316406 C 237.425781 119.238281 237.617188 119.203125 237.816406 119.203125 Z M 249.816406 119.203125 L 255.816406 119.203125 C 256.015625 119.203125 256.207031 119.238281 256.390625 119.316406 C 256.574219 119.390625 256.738281 119.5 256.878906 119.640625 C 257.019531 119.78125 257.125 119.945312 257.203125 120.128906 C 257.277344 120.3125 257.316406 120.503906 257.316406 120.703125 C 257.316406 120.902344 257.277344 121.089844 257.203125 121.277344 C 257.125 121.460938 257.019531 121.621094 256.878906 121.761719 C 256.738281 121.902344 256.574219 122.011719 256.390625 122.085938 C 256.207031 122.164062 256.015625 122.203125 255.816406 122.203125 L 249.816406 122.203125 C 249.617188 122.203125 249.425781 122.164062 249.242188 122.085938 C 249.058594 122.011719 248.898438 121.902344 248.757812 121.761719 C 248.617188 121.621094 248.507812 121.460938 248.429688 121.277344 C 248.355469 121.089844 248.316406 120.902344 248.316406 120.703125 C 248.316406 120.503906 248.355469 120.3125 248.429688 120.128906 C 248.507812 119.945312 248.617188 119.78125 248.757812 119.640625 C 248.898438 119.5 249.058594 119.390625 249.242188 119.316406 C 249.425781 119.238281 249.617188 119.203125 249.816406 119.203125 Z M 261.816406 119.203125 L 267.816406 119.203125 C 268.015625 119.203125 268.207031 119.238281 268.390625 119.316406 C 268.574219 119.390625 268.738281 119.5 268.878906 119.640625 C 269.019531 119.78125 269.125 119.945312 269.203125 120.128906 C 269.277344 120.3125 269.316406 120.503906 269.316406 120.703125 C 269.316406 120.902344 269.277344 121.089844 269.203125 121.277344 C 269.125 121.460938 269.019531 121.621094 268.878906 121.761719 C 268.738281 121.902344 268.574219 122.011719 268.390625 122.085938 C 268.207031 122.164062 268.015625 122.203125 267.816406 122.203125 L 261.816406 122.203125 C 261.617188 122.203125 261.425781 122.164062 261.242188 122.085938 C 261.058594 122.011719 260.898438 121.902344 260.757812 121.761719 C 260.617188 121.621094 260.507812 121.460938 260.429688 121.277344 C 260.355469 121.089844 260.316406 120.902344 260.316406 120.703125 C 260.316406 120.503906 260.355469 120.3125 260.429688 120.128906 C 260.507812 119.945312 260.617188 119.78125 260.757812 119.640625 C 260.898438 119.5 261.058594 119.390625 261.242188 119.316406 C 261.425781 119.238281 261.617188 119.203125 261.816406 119.203125 Z M 273.816406 119.203125 L 279.816406 119.203125 C 280.015625 119.203125 280.207031 119.238281 280.390625 119.316406 C 280.574219 119.390625 280.738281 119.5 280.878906 119.640625 C 281.019531 119.78125 281.125 119.945312 281.203125 120.128906 C 281.277344 120.3125 281.316406 120.503906 281.316406 120.703125 C 281.316406 120.902344 281.277344 121.089844 281.203125 121.277344 C 281.125 121.460938 281.019531 121.621094 280.878906 121.761719 C 280.738281 121.902344 280.574219 122.011719 280.390625 122.085938 C 280.207031 122.164062 280.015625 122.203125 279.816406 122.203125 L 273.816406 122.203125 C 273.617188 122.203125 273.425781 122.164062 273.242188 122.085938 C 273.058594 122.011719 272.898438 121.902344 272.757812 121.761719 C 272.617188 121.621094 272.507812 121.460938 272.429688 121.277344 C 272.355469 121.089844 272.316406 120.902344 272.316406 120.703125 C 272.316406 120.503906 272.355469 120.3125 272.429688 120.128906 C 272.507812 119.945312 272.617188 119.78125 272.757812 119.640625 C 272.898438 119.5 273.058594 119.390625 273.242188 119.316406 C 273.425781 119.238281 273.617188 119.203125 273.816406 119.203125 Z M 285.816406 119.203125 L 291.816406 119.203125 C 292.015625 119.203125 292.207031 119.238281 292.390625 119.316406 C 292.574219 119.390625 292.738281 119.5 292.878906 119.640625 C 293.019531 119.78125 293.125 119.945312 293.203125 120.128906 C 293.277344 120.3125 293.316406 120.503906 293.316406 120.703125 C 293.316406 120.902344 293.277344 121.089844 293.203125 121.277344 C 293.125 121.460938 293.019531 121.621094 292.878906 121.761719 C 292.738281 121.902344 292.574219 122.011719 292.390625 122.085938 C 292.207031 122.164062 292.015625 122.203125 291.816406 122.203125 L 285.816406 122.203125 C 285.617188 122.203125 285.425781 122.164062 285.242188 122.085938 C 285.058594 122.011719 284.898438 121.902344 284.757812 121.761719 C 284.617188 121.621094 284.507812 121.460938 284.429688 121.277344 C 284.355469 121.089844 284.316406 120.902344 284.316406 120.703125 C 284.316406 120.503906 284.355469 120.3125 284.429688 120.128906 C 284.507812 119.945312 284.617188 119.78125 284.757812 119.640625 C 284.898438 119.5 285.058594 119.390625 285.242188 119.316406 C 285.425781 119.238281 285.617188 119.203125 285.816406 119.203125 Z M 297.816406 119.203125 L 303.816406 119.203125 C 304.015625 119.203125 304.207031 119.238281 304.390625 119.316406 C 304.574219 119.390625 304.738281 119.5 304.878906 119.640625 C 305.019531 119.78125 305.125 119.945312 305.203125 120.128906 C 305.277344 120.3125 305.316406 120.503906 305.316406 120.703125 C 305.316406 120.902344 305.277344 121.089844 305.203125 121.277344 C 305.125 121.460938 305.019531 121.621094 304.878906 121.761719 C 304.738281 121.902344 304.574219 122.011719 304.390625 122.085938 C 304.207031 122.164062 304.015625 122.203125 303.816406 122.203125 L 297.816406 122.203125 C 297.617188 122.203125 297.425781 122.164062 297.242188 122.085938 C 297.058594 122.011719 296.898438 121.902344 296.757812 121.761719 C 296.617188 121.621094 296.507812 121.460938 296.429688 121.277344 C 296.355469 121.089844 296.316406 120.902344 296.316406 120.703125 C 296.316406 120.503906 296.355469 120.3125 296.429688 120.128906 C 296.507812 119.945312 296.617188 119.78125 296.757812 119.640625 C 296.898438 119.5 297.058594 119.390625 297.242188 119.316406 C 297.425781 119.238281 297.617188 119.203125 297.816406 119.203125 Z M 309.816406 119.203125 L 315.816406 119.203125 C 316.015625 119.203125 316.207031 119.238281 316.390625 119.316406 C 316.574219 119.390625 316.738281 119.5 316.878906 119.640625 C 317.019531 119.78125 317.125 119.945312 317.203125 120.128906 C 317.277344 120.3125 317.316406 120.503906 317.316406 120.703125 C 317.316406 120.902344 317.277344 121.089844 317.203125 121.277344 C 317.125 121.460938 317.019531 121.621094 316.878906 121.761719 C 316.738281 121.902344 316.574219 122.011719 316.390625 122.085938 C 316.207031 122.164062 316.015625 122.203125 315.816406 122.203125 L 309.816406 122.203125 C 309.617188 122.203125 309.425781 122.164062 309.242188 122.085938 C 309.058594 122.011719 308.898438 121.902344 308.757812 121.761719 C 308.617188 121.621094 308.507812 121.460938 308.429688 121.277344 C 308.355469 121.089844 308.316406 120.902344 308.316406 120.703125 C 308.316406 120.503906 308.355469 120.3125 308.429688 120.128906 C 308.507812 119.945312 308.617188 119.78125 308.757812 119.640625 C 308.898438 119.5 309.058594 119.390625 309.242188 119.316406 C 309.425781 119.238281 309.617188 119.203125 309.816406 119.203125 Z M 321.421875 118.707031 C 323.222656 118.257812 324.902344 117.519531 326.457031 116.496094 C 326.625 116.386719 326.804688 116.3125 327 116.273438 C 327.195312 116.238281 327.390625 116.238281 327.585938 116.277344 C 327.78125 116.320312 327.960938 116.394531 328.125 116.507812 C 328.289062 116.617188 328.425781 116.757812 328.535156 116.921875 C 328.644531 117.089844 328.71875 117.269531 328.753906 117.464844 C 328.792969 117.660156 328.792969 117.855469 328.75 118.050781 C 328.710938 118.246094 328.636719 118.425781 328.523438 118.589844 C 328.410156 118.753906 328.273438 118.890625 328.105469 119 C 326.265625 120.210938 324.28125 121.082031 322.152344 121.617188 C 321.960938 121.664062 321.765625 121.675781 321.566406 121.644531 C 321.371094 121.617188 321.1875 121.550781 321.015625 121.449219 C 320.84375 121.347656 320.699219 121.214844 320.582031 121.054688 C 320.464844 120.898438 320.378906 120.71875 320.332031 120.527344 C 320.285156 120.335938 320.273438 120.140625 320.304688 119.941406 C 320.332031 119.746094 320.398438 119.5625 320.5 119.390625 C 320.601562 119.222656 320.734375 119.078125 320.894531 118.957031 C 321.054688 118.839844 321.230469 118.757812 321.421875 118.707031 Z M 330.480469 112.757812 C 331.617188 111.28125 332.480469 109.664062 333.0625 107.902344 C 333.125 107.710938 333.222656 107.542969 333.351562 107.390625 C 333.480469 107.242188 333.636719 107.121094 333.8125 107.03125 C 333.992188 106.945312 334.179688 106.890625 334.378906 106.878906 C 334.578125 106.863281 334.769531 106.886719 334.957031 106.949219 C 335.148438 107.011719 335.316406 107.109375 335.46875 107.238281 C 335.617188 107.367188 335.738281 107.523438 335.828125 107.699219 C 335.917969 107.878906 335.96875 108.066406 335.984375 108.265625 C 335.996094 108.464844 335.972656 108.65625 335.910156 108.847656 C 335.21875 110.929688 334.203125 112.84375 332.855469 114.589844 C 332.734375 114.746094 332.589844 114.875 332.417969 114.972656 C 332.242188 115.074219 332.058594 115.136719 331.863281 115.160156 C 331.664062 115.1875 331.46875 115.175781 331.277344 115.121094 C 331.085938 115.070312 330.910156 114.984375 330.753906 114.863281 C 330.597656 114.742188 330.46875 114.59375 330.367188 114.421875 C 330.269531 114.25 330.207031 114.0625 330.179688 113.867188 C 330.15625 113.667969 330.167969 113.476562 330.21875 113.28125 C 330.273438 113.089844 330.359375 112.917969 330.480469 112.757812 Z M 333.898438 102.453125 L 333.898438 96.453125 C 333.898438 96.253906 333.9375 96.0625 334.011719 95.878906 C 334.089844 95.695312 334.195312 95.53125 334.335938 95.390625 C 334.476562 95.25 334.640625 95.140625 334.824219 95.066406 C 335.007812 94.988281 335.199219 94.953125 335.398438 94.953125 C 335.597656 94.953125 335.789062 94.988281 335.972656 95.066406 C 336.15625 95.140625 336.320312 95.25 336.460938 95.390625 C 336.601562 95.53125 336.707031 95.695312 336.785156 95.878906 C 336.859375 96.0625 336.898438 96.253906 336.898438 96.453125 L 336.898438 102.453125 C 336.898438 102.652344 336.859375 102.84375 336.785156 103.027344 C 336.707031 103.210938 336.601562 103.371094 336.460938 103.511719 C 336.320312 103.652344 336.15625 103.761719 335.972656 103.835938 C 335.789062 103.914062 335.597656 103.953125 335.398438 103.953125 C 335.199219 103.953125 335.007812 103.914062 334.824219 103.835938 C 334.640625 103.761719 334.476562 103.652344 334.335938 103.511719 C 334.195312 103.371094 334.089844 103.210938 334.011719 103.027344 C 333.9375 102.84375 333.898438 102.652344 333.898438 102.453125 Z M 333.898438 90.453125 L 333.898438 84.453125 C 333.898438 84.253906 333.9375 84.0625 334.011719 83.878906 C 334.089844 83.695312 334.195312 83.53125 334.335938 83.390625 C 334.476562 83.25 334.640625 83.140625 334.824219 83.066406 C 335.007812 82.988281 335.199219 82.953125 335.398438 82.953125 C 335.597656 82.953125 335.789062 82.988281 335.972656 83.066406 C 336.15625 83.140625 336.320312 83.25 336.460938 83.390625 C 336.601562 83.53125 336.707031 83.695312 336.785156 83.878906 C 336.859375 84.0625 336.898438 84.253906 336.898438 84.453125 L 336.898438 90.453125 C 336.898438 90.652344 336.859375 90.84375 336.785156 91.027344 C 336.707031 91.210938 336.601562 91.371094 336.460938 91.511719 C 336.320312 91.652344 336.15625 91.761719 335.972656 91.835938 C 335.789062 91.914062 335.597656 91.953125 335.398438 91.953125 C 335.199219 91.953125 335.007812 91.914062 334.824219 91.835938 C 334.640625 91.761719 334.476562 91.652344 334.335938 91.511719 C 334.195312 91.371094 334.089844 91.210938 334.011719 91.027344 C 333.9375 90.84375 333.898438 90.652344 333.898438 90.453125 Z M 333.898438 78.453125 L 333.898438 72.453125 C 333.898438 72.253906 333.9375 72.0625 334.011719 71.878906 C 334.089844 71.695312 334.195312 71.53125 334.335938 71.390625 C 334.476562 71.25 334.640625 71.140625 334.824219 71.066406 C 335.007812 70.988281 335.199219 70.953125 335.398438 70.953125 C 335.597656 70.953125 335.789062 70.988281 335.972656 71.066406 C 336.15625 71.140625 336.320312 71.25 336.460938 71.390625 C 336.601562 71.53125 336.707031 71.695312 336.785156 71.878906 C 336.859375 72.0625 336.898438 72.253906 336.898438 72.453125 L 336.898438 78.453125 C 336.898438 78.652344 336.859375 78.84375 336.785156 79.027344 C 336.707031 79.210938 336.601562 79.371094 336.460938 79.511719 C 336.320312 79.652344 336.15625 79.761719 335.972656 79.835938 C 335.789062 79.914062 335.597656 79.953125 335.398438 79.953125 C 335.199219 79.953125 335.007812 79.914062 334.824219 79.835938 C 334.640625 79.761719 334.476562 79.652344 334.335938 79.511719 C 334.195312 79.371094 334.089844 79.210938 334.011719 79.027344 C 333.9375 78.84375 333.898438 78.652344 333.898438 78.453125 Z M 333.898438 66.453125 L 333.898438 60.453125 C 333.898438 60.253906 333.9375 60.0625 334.011719 59.878906 C 334.089844 59.695312 334.195312 59.53125 334.335938 59.390625 C 334.476562 59.25 334.640625 59.140625 334.824219 59.066406 C 335.007812 58.988281 335.199219 58.953125 335.398438 58.953125 C 335.597656 58.953125 335.789062 58.988281 335.972656 59.066406 C 336.15625 59.140625 336.320312 59.25 336.460938 59.390625 C 336.601562 59.53125 336.707031 59.695312 336.785156 59.878906 C 336.859375 60.0625 336.898438 60.253906 336.898438 60.453125 L 336.898438 66.453125 C 336.898438 66.652344 336.859375 66.84375 336.785156 67.027344 C 336.707031 67.210938 336.601562 67.371094 336.460938 67.511719 C 336.320312 67.652344 336.15625 67.761719 335.972656 67.835938 C 335.789062 67.914062 335.597656 67.953125 335.398438 67.953125 C 335.199219 67.953125 335.007812 67.914062 334.824219 67.835938 C 334.640625 67.761719 334.476562 67.652344 334.335938 67.511719 C 334.195312 67.371094 334.089844 67.210938 334.011719 67.027344 C 333.9375 66.84375 333.898438 66.652344 333.898438 66.453125 Z M 333.898438 54.453125 L 333.898438 48.453125 C 333.898438 48.253906 333.9375 48.0625 334.011719 47.878906 C 334.089844 47.695312 334.195312 47.53125 334.335938 47.390625 C 334.476562 47.25 334.640625 47.140625 334.824219 47.066406 C 335.007812 46.988281 335.199219 46.953125 335.398438 46.953125 C 335.597656 46.953125 335.789062 46.988281 335.972656 47.066406 C 336.15625 47.140625 336.320312 47.25 336.460938 47.390625 C 336.601562 47.53125 336.707031 47.695312 336.785156 47.878906 C 336.859375 48.0625 336.898438 48.253906 336.898438 48.453125 L 336.898438 54.453125 C 336.898438 54.652344 336.859375 54.84375 336.785156 55.027344 C 336.707031 55.210938 336.601562 55.371094 336.460938 55.511719 C 336.320312 55.652344 336.15625 55.761719 335.972656 55.835938 C 335.789062 55.914062 335.597656 55.953125 335.398438 55.953125 C 335.199219 55.953125 335.007812 55.914062 334.824219 55.835938 C 334.640625 55.761719 334.476562 55.652344 334.335938 55.511719 C 334.195312 55.371094 334.089844 55.210938 334.011719 55.027344 C 333.9375 54.84375 333.898438 54.652344 333.898438 54.453125 Z M 333.898438 42.453125 L 333.898438 36.453125 C 333.898438 36.253906 333.9375 36.0625 334.011719 35.878906 C 334.089844 35.695312 334.195312 35.53125 334.335938 35.390625 C 334.476562 35.25 334.640625 35.140625 334.824219 35.066406 C 335.007812 34.988281 335.199219 34.953125 335.398438 34.953125 C 335.597656 34.953125 335.789062 34.988281 335.972656 35.066406 C 336.15625 35.140625 336.320312 35.25 336.460938 35.390625 C 336.601562 35.53125 336.707031 35.695312 336.785156 35.878906 C 336.859375 36.0625 336.898438 36.253906 336.898438 36.453125 L 336.898438 42.453125 C 336.898438 42.652344 336.859375 42.84375 336.785156 43.027344 C 336.707031 43.210938 336.601562 43.371094 336.460938 43.511719 C 336.320312 43.652344 336.15625 43.761719 335.972656 43.835938 C 335.789062 43.914062 335.597656 43.953125 335.398438 43.953125 C 335.199219 43.953125 335.007812 43.914062 334.824219 43.835938 C 334.640625 43.761719 334.476562 43.652344 334.335938 43.511719 C 334.195312 43.371094 334.089844 43.210938 334.011719 43.027344 C 333.9375 42.84375 333.898438 42.652344 333.898438 42.453125 Z M 333.898438 30.453125 L 333.898438 24.453125 C 333.898438 24.253906 333.9375 24.0625 334.011719 23.878906 C 334.089844 23.695312 334.195312 23.53125 334.335938 23.390625 C 334.476562 23.25 334.640625 23.140625 334.824219 23.066406 C 335.007812 22.988281 335.199219 22.953125 335.398438 22.953125 C 335.597656 22.953125 335.789062 22.988281 335.972656 23.066406 C 336.15625 23.140625 336.320312 23.25 336.460938 23.390625 C 336.601562 23.53125 336.707031 23.695312 336.785156 23.878906 C 336.859375 24.0625 336.898438 24.253906 336.898438 24.453125 L 336.898438 30.453125 C 336.898438 30.652344 336.859375 30.84375 336.785156 31.027344 C 336.707031 31.210938 336.601562 31.371094 336.460938 31.511719 C 336.320312 31.652344 336.15625 31.761719 335.972656 31.835938 C 335.789062 31.914062 335.597656 31.953125 335.398438 31.953125 C 335.199219 31.953125 335.007812 31.914062 334.824219 31.835938 C 334.640625 31.761719 334.476562 31.652344 334.335938 31.511719 C 334.195312 31.371094 334.089844 31.210938 334.011719 31.027344 C 333.9375 30.84375 333.898438 30.652344 333.898438 30.453125 Z M 333.898438 18.453125 L 333.898438 12.453125 C 333.898438 12.253906 333.9375 12.0625 334.011719 11.878906 C 334.089844 11.695312 334.195312 11.53125 334.335938 11.390625 C 334.476562 11.25 334.640625 11.140625 334.824219 11.066406 C 335.007812 10.988281 335.199219 10.953125 335.398438 10.953125 C 335.597656 10.953125 335.789062 10.988281 335.972656 11.066406 C 336.15625 11.140625 336.320312 11.25 336.460938 11.390625 C 336.601562 11.53125 336.707031 11.695312 336.785156 11.878906 C 336.859375 12.0625 336.898438 12.253906 336.898438 12.453125 L 336.898438 18.453125 C 336.898438 18.652344 336.859375 18.84375 336.785156 19.027344 C 336.707031 19.210938 336.601562 19.371094 336.460938 19.511719 C 336.320312 19.652344 336.15625 19.761719 335.972656 19.835938 C 335.789062 19.914062 335.597656 19.953125 335.398438 19.953125 C 335.199219 19.953125 335.007812 19.914062 334.824219 19.835938 C 334.640625 19.761719 334.476562 19.652344 334.335938 19.511719 C 334.195312 19.371094 334.089844 19.210938 334.011719 19.027344 C 333.9375 18.84375 333.898438 18.652344 333.898438 18.453125 Z M 333.898438 18.453125 " fill-opacity="1" fill-rule="nonzero"/><path stroke-linecap="round" transform="matrix(0.75, 0, 0, 0.75, 0.0000045, 0)" fill="none" stroke-linejoin="round" d="M 1.999994 210.729181 L 13.999995 210.729181 L 13.999995 222.729181 L 1.999994 222.729181 Z M 1.999994 210.729181 " stroke="#ff8601" stroke-width="4" stroke-opacity="1" stroke-miterlimit="4"/><path stroke-linecap="round" transform="matrix(0.75, 0, 0, 0.75, 0.0000045, 0)" fill="none" stroke-linejoin="round" d="M 441.19794 2 L 441.19794 14.000001 L 453.19794 14.000001 L 453.19794 2 Z M 441.19794 2 " stroke="#ff8601" stroke-width="4" stroke-opacity="1" stroke-miterlimit="4"/></svg>